<?xml version="1.0" encoding="UTF-8"?>
<svg version="1.1" xmlns="http://www.w3.org/2000/svg" width="2000" height="2000">
<path d="M0 0 C8.02476937 3.38823595 10.8184979 11.45187921 14.0625 18.9375 C14.54001709 20.03433105 15.01753418 21.13116211 15.50952148 22.26123047 C45.88962574 93.1332116 63.65326302 170.88747758 66.13037109 271.35107422 C66.12501829 274.86299984 66.13034681 278.37479702 66.13671875 281.88671875 C66.14033581 295.62791917 65.76698826 309.27943222 65 323 C71.6 324.65 78.2 326.3 85 328 C84.67 325.03 84.34 322.06 84 319 C83.9158818 317.46669808 83.8544107 315.93152501 83.83886719 314.39599609 C83.82941071 313.60918457 83.81995422 312.82237305 83.81021118 312.01171875 C83.80360977 310.78001953 83.80360977 310.78001953 83.796875 309.5234375 C83.78981537 308.64381348 83.78275574 307.76418945 83.77548218 306.85791016 C83.44346115 253.31937204 93.855442 200.53709286 130 159 C130.70125 158.07960938 131.4025 157.15921875 132.125 156.2109375 C132.74375 155.48132813 133.3625 154.75171875 134 154 C134.66 154 135.32 154 136 154 C137.51782227 156.21777344 137.51782227 156.21777344 139.31640625 159.359375 C139.64519775 159.92781631 139.97398926 160.49625763 140.31274414 161.08192444 C141.02748984 162.31896748 141.73894804 163.55791436 142.44754028 164.79849243 C144.33515419 168.10237217 146.2467286 171.39234322 148.15625 174.68359375 C148.55042618 175.36431442 148.94460236 176.0450351 149.35072327 176.74638367 C153.65469791 184.16246054 158.09841629 191.49203919 162.5625 198.8125 C162.93915802 199.43080688 163.31581604 200.04911377 163.70388794 200.68615723 C165.79950431 204.12599572 167.89814868 207.56396804 170 211 C170.60134766 209.38738281 170.60134766 209.38738281 171.21484375 207.7421875 C183.31728495 175.53031304 197.96026808 147.08885603 223 123 C223.79792969 122.19949219 224.59585938 121.39898437 225.41796875 120.57421875 C240.38989362 105.64759471 256.94446957 95.01059994 275.75 85.5 C276.44206543 85.14921387 277.13413086 84.79842773 277.84716797 84.43701172 C282.75437311 82 282.75437311 82 285 82 C287.0455284 89.42633602 288.19786145 96.9595205 289.3828125 104.5625 C289.6038437 105.96359105 289.82519292 107.36463196 290.04684448 108.765625 C290.62537819 112.42783171 291.19962866 116.0906972 291.77294922 119.75372314 C292.36033911 123.50159245 292.95183334 127.24881372 293.54296875 130.99609375 C294.69930017 138.33010575 295.85110132 145.66481955 297 153 C300.77704586 151.76504663 304.32400391 150.45803538 307.87890625 148.6796875 C308.78930664 148.23069092 309.69970703 147.78169434 310.63769531 147.3190918 C312.08547363 146.60426636 312.08547363 146.60426636 313.5625 145.875 C324.48852663 140.57450394 335.53701976 136.00076062 347 132 C347.77730469 131.72849121 348.55460937 131.45698242 349.35546875 131.17724609 C368.82426497 124.48794621 388.71037111 120.10546041 409.0625 117.1875 C410.15183838 117.0296553 410.15183838 117.0296553 411.26318359 116.86862183 C425.77568923 114.79208879 440.20275878 113.81835042 454.875 113.875 C456.45861328 113.86919922 456.45861328 113.86919922 458.07421875 113.86328125 C459.07839844 113.86457031 460.08257813 113.86585938 461.1171875 113.8671875 C462.01034668 113.86831543 462.90350586 113.86944336 463.82373047 113.87060547 C466 114 466 114 468 115 C466.7546461 169.04835946 450.19344585 227.57989791 413.76953125 268.87890625 C411.89345351 271.12771467 410.44384425 273.45650967 409 276 C409.56162842 276.09429794 410.12325684 276.18859589 410.7019043 276.28575134 C418.28702134 277.67040788 425.49054966 279.92770968 432.8125 282.31640625 C434.11606915 282.73757593 435.41978285 283.15829846 436.72363281 283.57859802 C439.43420699 284.45358051 442.14359215 285.33211417 444.85205078 286.21362305 C448.32507736 287.34393254 451.80011076 288.46791048 455.27592468 289.58961582 C458.60131148 290.66306756 461.92569265 291.73961725 465.25 292.81640625 C466.49885986 293.22057266 467.74771973 293.62473907 469.03442383 294.04115295 C470.18322021 294.41501633 471.3320166 294.7888797 472.515625 295.17407227 C473.52915039 295.5033522 474.54267578 295.83263214 475.58691406 296.17189026 C478 297 478 297 480 298 C479.07717776 302.34552416 476.9135151 305.7239097 474.5625 309.4375 C474.11656494 310.14543701 473.67062988 310.85337402 473.21118164 311.58276367 C468.13632745 319.51884862 462.47120072 326.92958305 456.37109375 334.109375 C455.13552734 335.57117188 455.13552734 335.57117188 453.875 337.0625 C453.12992188 337.91972656 452.38484375 338.77695312 451.6171875 339.66015625 C449.62095528 342.07437104 449.62095528 342.07437104 450 346 C451.83463321 348.35722081 451.83463321 348.35722081 454.3125 350.75 C474.13017129 371.50169357 486.6395147 399.29614205 493 427 C493.16371094 427.68690918 493.32742188 428.37381836 493.49609375 429.08154297 C501.51071634 464.19519423 495.46534681 502.50929891 481 535 C485.06987307 535.92821667 489.12715866 536.84082241 493.234375 537.58984375 C526.1139019 543.65604467 553.59420635 557.57292771 579 579 C579.65613281 579.53238281 580.31226563 580.06476562 580.98828125 580.61328125 C585.5176217 584.33919102 589.26135779 588.49101375 593 593 C593.42941895 593.50112305 593.85883789 594.00224609 594.30126953 594.51855469 C623.28576338 628.39187934 637.58819178 673.02940329 634.67919922 717.47412109 C631.93963311 750.05130132 620.49441652 780.78220585 601 807 C600.34902344 807.8765625 599.69804688 808.753125 599.02734375 809.65625 C571.98746428 844.25062374 532.99726409 866.99214494 489.57421875 873.54296875 C480.45872886 874.639802 471.15984306 874.23679828 462 874 C462.50789063 875.00675781 463.01578125 876.01351562 463.5390625 877.05078125 C481.71961934 913.87738102 485.60336985 955.17802635 476 995 C521.2629635 983.55288905 561.71822732 963.58414047 597 933 C597.61673584 932.46938965 598.23347168 931.9387793 598.86889648 931.39208984 C603.90811912 927.02852063 608.78582872 922.52423479 613.5625 917.875 C614.29791016 917.18535156 615.03332031 916.49570313 615.79101562 915.78515625 C616.82452148 914.77388672 616.82452148 914.77388672 617.87890625 913.7421875 C618.5035376 913.1426123 619.12816895 912.54303711 619.77172852 911.92529297 C621.26221091 910.02332696 621.26221091 910.02332696 620.76513672 907.47973633 C619.37460383 902.97314968 617.81484106 898.53186032 616.25390625 894.08203125 C613.26991795 884.78949626 612.66121152 875.9194965 612.6875 866.1875 C612.67138672 865.00607422 612.65527344 863.82464844 612.63867188 862.60742188 C612.63276508 851.8275168 613.45029072 841.14590462 620.40234375 832.48828125 C624.25965894 828.89503653 628.03844401 828.4455408 633.1484375 828.55859375 C643.27756803 830.12652765 651.00900346 837.00900346 658 844 C658.4125 843.50371094 658.825 843.00742187 659.25 842.49609375 C669.39769537 830.55896103 681.51062831 821.57666997 697.625 820.1875 C708.68660146 819.53269061 717.21194551 821.91780582 725.5625 829.25 C736.62456266 841.73027582 738.90567155 856.76377906 738 873 C736.17913986 885.07215937 730.92057086 894.84807989 723 904 C722.42765625 904.66773438 721.8553125 905.33546875 721.265625 906.0234375 C708.88795511 919.40613187 686.81611787 930.89673521 668.6796875 932.4140625 C656.10349119 933.58076017 650.70406333 937.89328029 642.5390625 947.30078125 C638.83782414 951.38717386 634.32459392 954.60965938 630 958 C628.89384493 958.90512749 627.78978943 959.81282504 626.6875 960.72265625 C590.85545192 990.15524527 550.15980629 1011.33913028 506.375 1026.1875 C505.22920975 1026.57801041 505.22920975 1026.57801041 504.06027222 1026.97640991 C495.92181216 1029.72671771 487.86464898 1032.18681649 479.41015625 1033.75390625 C478.39439262 1033.94331535 478.39439262 1033.94331535 477.35810852 1034.1365509 C476.69393417 1034.26027573 476.02975983 1034.38400055 475.34545898 1034.51147461 C462.37994873 1036.56331996 462.37994873 1036.56331996 452.59448242 1044.52905273 C450.9150986 1047.27472215 449.452347 1050.08334174 448.06005859 1052.98388672 C446.34354142 1056.24851104 444.04865221 1058.92676952 441.625 1061.6875 C441.17342529 1062.20948975 440.72185059 1062.73147949 440.2565918 1063.26928711 C408.20854415 1099.7912626 366.73279293 1117.27889602 319 1123 C319.50789063 1123.99257812 320.01578125 1124.98515625 320.5390625 1126.0078125 C328.48829162 1141.64052051 334.80900646 1156.94243044 339 1174 C339.27336182 1175.10577393 339.27336182 1175.10577393 339.55224609 1176.23388672 C346.36692816 1205.47938298 343.15283872 1239.00547686 333 1267 C332.55914063 1268.22589844 332.11828125 1269.45179687 331.6640625 1270.71484375 C326.01941992 1285.57491109 318.47712816 1299.24895484 309 1312 C308.43539062 1312.78890625 307.87078125 1313.5778125 307.2890625 1314.390625 C292.41200259 1334.18182687 272.91530073 1349.76880292 251 1361 C250.32356445 1361.35046387 249.64712891 1361.70092773 248.95019531 1362.06201172 C230.14641608 1371.69484052 210.69624184 1376.22322102 190 1380 C190.25056152 1380.58040039 190.50112305 1381.16080078 190.75927734 1381.75878906 C213.01754713 1433.5837129 227.93833931 1487.65206957 234.3125 1543.6875 C234.39390228 1544.40294983 234.47530457 1545.11839966 234.55917358 1545.85552979 C236.31805266 1561.54766372 237.1508461 1577.08999336 237.09765625 1592.87109375 C237.09578524 1594.53117327 237.09436458 1596.19125335 237.09336853 1597.85133362 C237.08959702 1602.16661167 237.07981433 1606.48185469 237.06866455 1610.79711914 C237.05833331 1615.22216315 237.05384612 1619.64721296 237.04882812 1624.07226562 C237.03818578 1632.71485962 237.02117607 1641.35742542 237 1650 C237.8904451 1649.72339539 238.7808902 1649.44679077 239.69831848 1649.1618042 C240.86755356 1648.80000061 242.03678864 1648.43819702 243.24145508 1648.06542969 C244.40002518 1647.70632507 245.55859528 1647.34722046 246.75227356 1646.97723389 C267.94201225 1640.60128718 291.74031017 1640.3964787 311.59619141 1650.88696289 C325.5603454 1658.62157802 334.77011206 1668.81977525 340.0703125 1684.08203125 C342.29272595 1691.88050006 342.50783896 1698.47648313 339.9375 1706.1875 C333.4595851 1715.59092486 323.66347897 1720.01233762 312.6875 1722.25 C284.76126578 1726.50313337 256.30192833 1722.84456984 228.6875 1718.0625 C227.6122406 1717.88083282 227.6122406 1717.88083282 226.51525879 1717.69549561 C206.42843652 1714.26517764 206.42843652 1714.26517764 200.375 1708.5 C196.55169183 1698.76794285 199.59775205 1686.71158118 200.9375 1676.5625 C201.21522739 1674.42334078 201.49063852 1672.28392929 201.7625885 1670.14402771 C202.0102772 1668.20033309 202.26453954 1666.25747933 202.51928711 1664.31469727 C203.70644671 1654.26827691 204.16283797 1644.24351935 204.203125 1634.1328125 C204.21013931 1632.94732819 204.21715363 1631.76184387 204.22438049 1630.54043579 C204.24178609 1626.73525141 204.24823294 1622.93022273 204.25 1619.125 C204.25067474 1617.82421509 204.25134949 1616.52343018 204.25204468 1615.18322754 C204.23616799 1595.9311847 203.8102225 1577.07387118 201 1558 C200.74259033 1556.18121338 200.74259033 1556.18121338 200.47998047 1554.32568359 C197.53315603 1533.92438876 193.01078994 1513.97738568 188 1494 C186.84213071 1497.97607946 185.74191029 1501.9598308 184.703125 1505.96875 C176.94975966 1535.66944391 163.85594854 1564.73865252 141 1586 C139.7625 1587.2375 139.7625 1587.2375 138.5 1588.5 C137.2625 1589.7375 137.2625 1589.7375 136 1591 C135.24843628 1591.77766724 135.24843628 1591.77766724 134.48168945 1592.57104492 C123.08842413 1604.24231585 109.441533 1612.61547775 95 1620 C93.31970703 1620.86238281 93.31970703 1620.86238281 91.60546875 1621.7421875 C69.09681497 1632.67091751 45.05461981 1637.22790542 20.1875 1637.25 C19.40410248 1637.25100708 18.62070496 1637.25201416 17.81356812 1637.25305176 C5.94413184 1637.24272457 -5.39166184 1636.64322665 -17 1634 C-18.32798613 1633.72978539 -19.65611119 1633.46025258 -20.984375 1633.19140625 C-43.92129747 1628.26545062 -65.50156034 1617.23537695 -84 1603 C-84.91910156 1602.30519531 -85.83820312 1601.61039063 -86.78515625 1600.89453125 C-121.3941932 1573.72720181 -143.12009098 1534.084392 -149.57836914 1490.73730469 C-150.3863961 1483.57501362 -150.4785882 1476.38836768 -150.625 1469.1875 C-150.66329742 1467.60870521 -150.70235536 1466.02992869 -150.7421875 1464.45117188 C-150.83686651 1460.63426763 -150.92134621 1456.8172667 -151 1453 C-164.54358193 1489.15247341 -174.25924161 1525.66740345 -179 1564 C-179.11182617 1564.89090332 -179.22365234 1565.78180664 -179.33886719 1566.69970703 C-184.24491428 1607.17846471 -183.15517133 1649.82722397 -176.41918945 1690.04833984 C-175.51425753 1696.42028332 -174.99555059 1702.44321969 -177.375 1708.5 C-184.72443398 1715.49946093 -195.98314606 1716.42945207 -205.625 1718.0625 C-206.72467102 1718.25335175 -206.72467102 1718.25335175 -207.84655762 1718.44805908 C-218.93952145 1720.3623422 -230.04256509 1721.82824408 -241.25 1722.875 C-242.52568848 1722.99496338 -243.80137695 1723.11492676 -245.11572266 1723.23852539 C-265.56417187 1724.97999203 -293.64844219 1726.58808722 -311.16015625 1713.70703125 C-315.39771301 1709.77537031 -318.56111446 1704.85180726 -319 1699 C-319.103125 1697.845 -319.20625 1696.69 -319.3125 1695.5 C-319.04468731 1682.52325777 -311.93272361 1670.018482 -303.3125 1660.6875 C-287.90722853 1646.42782602 -268.24754005 1642.21025476 -247.84375 1642.67578125 C-236.2165887 1643.24138823 -224.96119185 1646.26682234 -214 1650 C-214.0169693 1649.39311844 -214.0339386 1648.78623688 -214.05142212 1648.16096497 C-214.87963522 1618.04018992 -215.68908339 1588.04385418 -213 1558 C-212.938125 1557.30225464 -212.87625 1556.60450928 -212.8125 1555.88562012 C-209.70105178 1521.40767821 -203.17974712 1487.36319536 -194 1454 C-193.7004541 1452.90961426 -193.4009082 1451.81922852 -193.09228516 1450.69580078 C-186.91831946 1428.65273406 -178.54750366 1407.22006233 -170 1386 C-170.88558594 1385.67128906 -171.77117188 1385.34257813 -172.68359375 1385.00390625 C-192.02049063 1377.64980548 -209.27617289 1367.49744451 -225 1354 C-225.83273437 1353.29101562 -226.66546875 1352.58203125 -227.5234375 1351.8515625 C-259.58317526 1323.83721752 -277.72462153 1284.88330786 -283 1243 C-283.12287348 1240.39660759 -283.209348 1237.81856676 -283.23828125 1235.21484375 C-283.24802979 1234.4849826 -283.25777832 1233.75512146 -283.26782227 1233.00314331 C-283.441739 1216.59953418 -283.11414004 1200.98656735 -279 1185 C-278.82339844 1184.26942383 -278.64679688 1183.53884766 -278.46484375 1182.78613281 C-272.91591025 1160.12798769 -262.18089084 1139.41885822 -248 1121 C-248.9583374 1121.10393066 -248.9583374 1121.10393066 -249.93603516 1121.20996094 C-282.97444682 1124.53331647 -316.03063561 1120.78393047 -346 1106 C-347.1147168 1105.46681152 -347.1147168 1105.46681152 -348.25195312 1104.92285156 C-375.37804146 1091.87670883 -398.59571875 1071.21459663 -415 1046 C-415.82564453 1044.74896484 -415.82564453 1044.74896484 -416.66796875 1043.47265625 C-420 1038.31127451 -420 1038.31127451 -420 1036 C-421.09489746 1035.77650879 -422.18979492 1035.55301758 -423.31787109 1035.32275391 C-434.34813566 1033.00912923 -444.96157672 1030.0062811 -455.625 1026.375 C-456.79005066 1025.98199707 -456.79005066 1025.98199707 -457.9786377 1025.58105469 C-508.2103047 1008.60364938 -564.95995506 980.53174198 -600.37255859 939.40600586 C-604.34589613 934.92269604 -607.51449035 934.01772969 -613.375 933.4375 C-636.60627858 930.29332798 -659.62318699 920.23951756 -675 902 C-684.09663449 889.97003048 -687.53086599 879.76726576 -687.4375 864.625 C-687.4674707 862.91183594 -687.4674707 862.91183594 -687.49804688 861.1640625 C-687.49075638 848.33279466 -684.05668416 838.26165009 -675.1171875 829.0625 C-667.36412652 821.76550143 -659.52890385 820.03938493 -649 820 C-635.70894888 820.65221338 -622.12934279 827.45292228 -613 837.1171875 C-611.29461536 839.04949832 -609.63800807 841.01065106 -608 843 C-607.67 843.33 -607.34 843.66 -607 844 C-606.319375 843.29875 -605.63875 842.5975 -604.9375 841.875 C-603.96190514 840.91303077 -602.98242296 839.95499491 -602 839 C-601.23816406 838.24396484 -601.23816406 838.24396484 -600.4609375 837.47265625 C-594.72759217 832.13330859 -588.10378431 828.86545264 -580.1875 828.5625 C-575.13779526 828.82920976 -572.42480327 830.57519673 -568.875 834.125 C-562.74501643 843.52430815 -562.72747197 854.39908341 -562.6875 865.25 C-562.68488159 865.92406891 -562.68226318 866.59813782 -562.67956543 867.29263306 C-562.67328927 882.35251163 -565.32969149 895.03535723 -571 909 C-561.5198153 920.83224287 -561.5198153 920.83224287 -550 930 C-550 930.66 -550 931.32 -550 932 C-549.46246094 932.22558594 -548.92492187 932.45117188 -548.37109375 932.68359375 C-545.2496957 934.41656103 -542.72592142 936.71456267 -540.0625 939.0625 C-533.6956239 944.54262206 -527.06062873 949.43894384 -520 954 C-519.35498535 954.41717285 -518.7099707 954.8343457 -518.04541016 955.26416016 C-492.94238662 971.34606392 -466.42150572 983.08896685 -438 992 C-438.20496094 990.98679687 -438.40992188 989.97359375 -438.62109375 988.9296875 C-438.89328131 987.5781355 -439.16541379 986.22657241 -439.4375 984.875 C-439.57220703 984.20984375 -439.70691406 983.5446875 -439.84570312 982.859375 C-447.19562023 946.28905575 -440.98219083 908.11343366 -424 875 C-424.59723877 874.93530518 -425.19447754 874.87061035 -425.80981445 874.80395508 C-462.40599685 870.72760433 -497.02776056 858.69845142 -525 834 C-525.96292969 833.16984375 -526.92585937 832.3396875 -527.91796875 831.484375 C-539.85180829 821.02530842 -549.51086036 809.05047819 -557.95849609 795.64990234 C-558.859868 794.22199063 -559.78162872 792.80698774 -560.70703125 791.39453125 C-570.75122904 775.5729321 -577.18912663 756.26678637 -581 738 C-581.29003906 736.62521484 -581.29003906 736.62521484 -581.5859375 735.22265625 C-587.99554585 699.87691744 -582.17417116 663.28922469 -567 631 C-566.59007812 630.09894531 -566.18015625 629.19789063 -565.7578125 628.26953125 C-558.61965997 613.18095367 -548.1799384 598.40977836 -536 587 C-535.22269531 586.22140625 -534.44539062 585.4428125 -533.64453125 584.640625 C-524.97442655 575.98332695 -516.25375613 568.71224685 -506 562 C-505.13117188 561.39542969 -504.26234375 560.79085937 -503.3671875 560.16796875 C-484.32538272 547.26962086 -461.42476802 540.81450908 -439 537 C-437.87851562 536.80148437 -436.75703125 536.60296875 -435.6015625 536.3984375 C-430.74408576 535.86105938 -425.9448551 535.89411612 -421.0625 535.9375 C-420.09248047 535.94201172 -419.12246094 535.94652344 -418.12304688 535.95117188 C-415.7486324 535.9628685 -413.37434979 535.97925914 -411 536 C-411.54527344 534.83210937 -411.54527344 534.83210937 -412.1015625 533.640625 C-430.3609323 493.00182246 -432.38696518 446.179597 -416.99072266 404.25146484 C-407.74551175 380.46655956 -394.6693599 360.36500399 -377 342 C-379.66945645 338.83880157 -382.3402268 335.70494686 -385.16796875 332.68359375 C-392.74188556 324.59074626 -399.40257339 315.89589904 -406 307 C-406.7412915 306.02643555 -406.7412915 306.02643555 -407.49755859 305.03320312 C-411 300.34030097 -411 300.34030097 -411 297 C-401.38709379 294.12835216 -391.77332043 291.25962827 -382.15841866 288.39466858 C-377.69420904 287.0643638 -373.23030824 285.733041 -368.76708984 284.39941406 C-364.46250842 283.11322882 -360.15714661 281.8296885 -355.85122299 280.54800415 C-354.20584722 280.05773695 -352.56075838 279.56650577 -350.9159584 279.0743103 C-348.61805669 278.38685509 -346.31917285 277.70278685 -344.02001953 277.01953125 C-343.33525543 276.813815 -342.65049133 276.60809875 -341.94497681 276.39614868 C-337.22810432 275 -337.22810432 275 -335 275 C-335.81791016 273.74509766 -335.81791016 273.74509766 -336.65234375 272.46484375 C-364.71900496 229.22684439 -396.29983933 170.93401004 -395 118 C-335.05131525 117.00772485 -280.26734009 129.20338316 -226 155 C-225.89473495 154.3728006 -225.78946991 153.7456012 -225.68101501 153.09939575 C-224.30404934 145.19320134 -222.51594477 137.41560736 -220.62890625 129.6171875 C-220.38904149 128.62471197 -220.38904149 128.62471197 -220.14433098 127.61218643 C-219.30178898 124.12821318 -218.45514996 120.64526498 -217.60522461 117.16308594 C-216.7289115 113.56884736 -215.86792849 109.97110843 -215.01004124 106.37243462 C-214.34518653 103.59603882 -213.66893108 100.82251317 -212.98948479 98.04965591 C-212.66657273 96.72299233 -212.34805166 95.39525204 -212.03399849 94.06646347 C-211.59674615 92.22091277 -211.14171254 90.3796018 -210.68579102 88.53857422 C-210.43201187 87.49031464 -210.17823273 86.44205505 -209.91676331 85.36203003 C-209.46296547 84.19282516 -209.46296547 84.19282516 -209 83 C-206 82 -206 82 -202.5859375 83.66796875 C-201.17449154 84.49463644 -199.77135419 85.33558795 -198.375 86.1875 C-197.62371826 86.63947754 -196.87243652 87.09145508 -196.09838867 87.55712891 C-170.03578985 103.46663159 -145.75992721 124.00605209 -128 149 C-127.54141602 149.63067383 -127.08283203 150.26134766 -126.61035156 150.91113281 C-119.7451424 160.41858993 -113.97398141 170.42059418 -108.5625 180.8125 C-107.98330811 181.92069092 -107.40411621 183.02888184 -106.80737305 184.1706543 C-103.00088878 191.62361208 -99.85174072 199.13532665 -97 207 C-96.34 207 -95.68 207 -95 207 C-93.63755003 205.62056152 -93.63755003 205.62056152 -92.26953125 203.765625 C-91.72119629 203.05599609 -91.17286133 202.34636719 -90.60791016 201.61523438 C-90.0154248 200.83470703 -89.42293945 200.05417969 -88.8125 199.25 C-88.19681152 198.44884766 -87.58112305 197.64769531 -86.94677734 196.82226562 C-81.64782081 189.90674627 -76.43076256 182.92914574 -71.21972656 175.94726562 C-66.9259431 170.20247948 -62.56060357 164.53683501 -58 159 C-53.95101269 160.34966244 -52.30393244 163.09337124 -49.8125 166.375 C-49.32346191 167.01131348 -48.83442383 167.64762695 -48.33056641 168.30322266 C-47.34025862 169.59649391 -46.35357109 170.89254573 -45.37060547 172.19140625 C-44.19689472 173.74018595 -43.00813257 175.27753945 -41.81640625 176.8125 C-14.74106063 212.54977712 -3.0543913 259.63166304 -8.97753906 303.9206543 C-9.58534881 307.9606477 -10.26064595 311.98208802 -11 316 C-11.18079102 317.00015137 -11.36158203 318.00030273 -11.54785156 319.03076172 C-12.02878249 321.68775665 -12.51301883 324.34410847 -13 327 C-12.30962646 326.84853516 -11.61925293 326.69707031 -10.90795898 326.54101562 C-7.75271709 325.85319564 -4.59518404 325.17651598 -1.4375 324.5 C-0.35146484 324.26152344 0.73457031 324.02304687 1.85351562 323.77734375 C2.91376953 323.55175781 3.97402344 323.32617188 5.06640625 323.09375 C6.5196228 322.77954102 6.5196228 322.77954102 8.00219727 322.45898438 C11.37137687 321.94313963 14.59669557 321.92565146 18 322 C16.32038276 223.14838073 -3.19562867 128.47512917 -55.78759766 43.12670898 C-58.13103632 39.01601745 -58.88650187 34.64396851 -58 30 C-55.3850037 25.1861707 -52.77875724 22.84615177 -48 20.25 C-47.40405029 19.92273926 -46.80810059 19.59547852 -46.1940918 19.25830078 C-39.9493647 15.87360347 -33.57611087 12.72145893 -27.19995117 9.59326172 C-22.62391743 7.34543173 -18.19602139 4.98541162 -13.8125 2.375 C-9.15808062 -0.20429363 -5.25789727 -1.06220147 0 0 Z M147 873 C146.67 874.65 146.34 876.3 146 878 C147.61394991 880.55671122 147.61394991 880.55671122 149.9375 882.8125 C150.68902344 883.60269531 151.44054688 884.39289062 152.21484375 885.20703125 C152.80394531 885.79871094 153.39304687 886.39039063 154 887 C156.23067325 884.21325634 157.78857967 881.53022699 159.1875 878.25 C159.785625 876.8475 160.38375 875.445 161 874 C154.07 873.505 154.07 873.505 147 873 Z M-138 1055 C-138.99 1056.485 -138.99 1056.485 -140 1058 C-138.68 1057.67 -137.36 1057.34 -136 1057 C-136.66 1056.34 -137.32 1055.68 -138 1055 Z M-150 1448 C-149 1450 -149 1450 -149 1450 Z " fill="#904EA5" transform="translate(975,138)"/>
<path d="M0 0 C6.72571054 4.02523585 12.39892743 8.91992997 18.078125 14.26953125 C20.58264555 16.60998562 23.1391407 18.84326959 25.75 21.0625 C48.40749367 41.19343862 62.34741643 73.02387291 69 102 C69.24556641 103.03036377 69.24556641 103.03036377 69.49609375 104.08154297 C77.51071634 139.19519423 71.46534681 177.50929891 57 210 C61.06987307 210.92821667 65.12715866 211.84082241 69.234375 212.58984375 C102.1139019 218.65604467 129.59420635 232.57292771 155 254 C155.65613281 254.53238281 156.31226563 255.06476563 156.98828125 255.61328125 C161.5176217 259.33919102 165.26135779 263.49101375 169 268 C169.42941895 268.50112305 169.85883789 269.00224609 170.30126953 269.51855469 C199.28576338 303.39187934 213.58819178 348.02940329 210.67919922 392.47412109 C207.93963311 425.05130132 196.49441652 455.78220585 177 482 C176.02353516 483.31484375 176.02353516 483.31484375 175.02734375 484.65625 C147.98746428 519.25062374 108.99726409 541.99214494 65.57421875 548.54296875 C56.45872886 549.639802 47.15984306 549.23679828 38 549 C38.50789063 550.00675781 39.01578125 551.01351562 39.5390625 552.05078125 C57.71961934 588.87738102 61.60336985 630.17802635 52 670 C97.2629635 658.55288905 137.71822732 638.58414047 173 608 C173.92510376 607.20408447 173.92510376 607.20408447 174.86889648 606.39208984 C179.90811912 602.02852063 184.78582872 597.52423479 189.5625 592.875 C190.29791016 592.18535156 191.03332031 591.49570313 191.79101562 590.78515625 C192.48001953 590.11097656 193.16902344 589.43679688 193.87890625 588.7421875 C194.5035376 588.1426123 195.12816895 587.54303711 195.77172852 586.92529297 C197.26221091 585.02332696 197.26221091 585.02332696 196.76513672 582.47973633 C195.37460383 577.97314968 193.81484106 573.53186032 192.25390625 569.08203125 C189.26991795 559.78949626 188.66121152 550.9194965 188.6875 541.1875 C188.67138672 540.00607422 188.65527344 538.82464844 188.63867188 537.60742188 C188.63276508 526.8275168 189.45029072 516.14590462 196.40234375 507.48828125 C200.25965894 503.89503653 204.03844401 503.4455408 209.1484375 503.55859375 C219.27756803 505.12652765 227.00900346 512.00900346 234 519 C234.4125 518.50371094 234.825 518.00742187 235.25 517.49609375 C245.39769537 505.55896103 257.51062831 496.57666997 273.625 495.1875 C284.68660146 494.53269061 293.21194551 496.91780582 301.5625 504.25 C312.62456266 516.73027582 314.90567155 531.76377906 314 548 C312.17913986 560.07215937 306.92057086 569.84807989 299 579 C298.42765625 579.66773438 297.8553125 580.33546875 297.265625 581.0234375 C284.88795511 594.40613187 262.81611787 605.89673521 244.6796875 607.4140625 C232.10349119 608.58076017 226.70406333 612.89328029 218.5390625 622.30078125 C214.83782414 626.38717386 210.32459392 629.60965938 206 633 C204.89384493 633.90512749 203.78978943 634.81282504 202.6875 635.72265625 C166.85545192 665.15524527 126.15980629 686.33913028 82.375 701.1875 C81.61113983 701.44784027 80.84727966 701.70818054 80.06027222 701.97640991 C71.92181216 704.72671771 63.86464898 707.18681649 55.41015625 708.75390625 C54.7329805 708.88017899 54.05580475 709.00645172 53.35810852 709.1365509 C52.69393417 709.26027573 52.02975983 709.38400055 51.34545898 709.51147461 C38.37994873 711.56331996 38.37994873 711.56331996 28.59448242 719.52905273 C26.9150986 722.27472215 25.452347 725.08334174 24.06005859 727.98388672 C22.34354142 731.24851104 20.04865221 733.92676952 17.625 736.6875 C17.17342529 737.20948975 16.72185059 737.73147949 16.2565918 738.26928711 C-15.79145585 774.7912626 -57.26720707 792.27889602 -105 798 C-104.49210937 798.99257812 -103.98421875 799.98515625 -103.4609375 801.0078125 C-95.51170838 816.64052051 -89.19099354 831.94243044 -85 849 C-84.72663818 850.10577393 -84.72663818 850.10577393 -84.44775391 851.23388672 C-77.63307184 880.47938298 -80.84716128 914.00547686 -91 942 C-91.44085937 943.22589844 -91.88171875 944.45179688 -92.3359375 945.71484375 C-97.98058008 960.57491109 -105.52287184 974.24895484 -115 987 C-115.84691406 988.18335938 -115.84691406 988.18335938 -116.7109375 989.390625 C-131.58799741 1009.18182687 -151.08469927 1024.76880292 -173 1036 C-173.67643555 1036.35046387 -174.35287109 1036.70092773 -175.04980469 1037.06201172 C-193.85358392 1046.69484052 -213.30375816 1051.22322102 -234 1055 C-233.74943848 1055.58040039 -233.49887695 1056.16080078 -233.24072266 1056.75878906 C-210.98245287 1108.5837129 -196.06166069 1162.65206957 -189.6875 1218.6875 C-189.60609772 1219.40294983 -189.52469543 1220.11839966 -189.44082642 1220.85552979 C-187.68194734 1236.54766372 -186.8491539 1252.08999336 -186.90234375 1267.87109375 C-186.90421476 1269.53117327 -186.90563542 1271.19125335 -186.90663147 1272.85133362 C-186.91040298 1277.16661167 -186.92018567 1281.48185469 -186.93133545 1285.79711914 C-186.94166669 1290.22216315 -186.94615388 1294.64721296 -186.95117188 1299.07226562 C-186.96181422 1307.71485962 -186.97882393 1316.35742542 -187 1325 C-186.1095549 1324.72339539 -185.2191098 1324.44679077 -184.30168152 1324.1618042 C-182.5478289 1323.61909882 -182.5478289 1323.61909882 -180.75854492 1323.06542969 C-179.59997482 1322.70632507 -178.44140472 1322.34722046 -177.24772644 1321.97723389 C-156.05798775 1315.60128718 -132.25968983 1315.3964787 -112.40380859 1325.88696289 C-98.4396546 1333.62157802 -89.22988794 1343.81977525 -83.9296875 1359.08203125 C-81.70727405 1366.88050006 -81.49216104 1373.47648313 -84.0625 1381.1875 C-90.5404149 1390.59092486 -100.33652103 1395.01233762 -111.3125 1397.25 C-139.23873422 1401.50313337 -167.69807167 1397.84456984 -195.3125 1393.0625 C-196.0293396 1392.94138855 -196.7461792 1392.8202771 -197.48474121 1392.69549561 C-217.57156348 1389.26517764 -217.57156348 1389.26517764 -223.625 1383.5 C-227.44830817 1373.76794285 -224.40224795 1361.71158118 -223.0625 1351.5625 C-222.78477261 1349.42334078 -222.50936148 1347.28392929 -222.2374115 1345.14402771 C-221.9897228 1343.20033309 -221.73546046 1341.25747933 -221.48071289 1339.31469727 C-220.29355329 1329.26827691 -219.83716203 1319.24351935 -219.796875 1309.1328125 C-219.78986069 1307.94732819 -219.78284637 1306.76184387 -219.77561951 1305.54043579 C-219.75821391 1301.73525141 -219.75176706 1297.93022273 -219.75 1294.125 C-219.74932526 1292.82421509 -219.74865051 1291.52343018 -219.74795532 1290.18322754 C-219.76383201 1270.9311847 -220.1897775 1252.07387118 -223 1233 C-223.17160645 1231.78747559 -223.34321289 1230.57495117 -223.52001953 1229.32568359 C-226.46684397 1208.92438876 -230.98921006 1188.97738568 -236 1169 C-237.15786929 1172.97607946 -238.25808971 1176.9598308 -239.296875 1180.96875 C-247.05024034 1210.66944391 -260.14405146 1239.73865252 -283 1261 C-283.825 1261.825 -284.65 1262.65 -285.5 1263.5 C-286.325 1264.325 -287.15 1265.15 -288 1266 C-288.75156372 1266.77766724 -288.75156372 1266.77766724 -289.51831055 1267.57104492 C-300.91157587 1279.24231585 -314.558467 1287.61547775 -329 1295 C-330.68029297 1295.86238281 -330.68029297 1295.86238281 -332.39453125 1296.7421875 C-354.90318503 1307.67091751 -378.94538019 1312.22790542 -403.8125 1312.25 C-404.59589752 1312.25100708 -405.37929504 1312.25201416 -406.18643188 1312.25305176 C-418.05586816 1312.24272457 -429.39166184 1311.64322665 -441 1309 C-442.32798613 1308.72978539 -443.65611119 1308.46025258 -444.984375 1308.19140625 C-467.92129747 1303.26545062 -489.50156034 1292.23537695 -508 1278 C-508.91910156 1277.30519531 -509.83820312 1276.61039063 -510.78515625 1275.89453125 C-523.12629912 1266.20700673 -534.11468333 1254.9306641 -543 1242 C-542.34 1241.67 -541.68 1241.34 -541 1241 C-538.52964712 1242.25053933 -536.14998393 1243.56245808 -533.75 1244.9375 C-517.83094808 1253.67012906 -500.86186881 1259.00846234 -483 1262 C-482.02071533 1262.17515137 -481.04143066 1262.35030273 -480.0324707 1262.53076172 C-442.65414147 1268.85402544 -400.29973715 1261.21828643 -368 1241 C-367.35047363 1240.5978125 -366.70094727 1240.195625 -366.03173828 1239.78125 C-357.52645056 1234.45634499 -349.55368506 1228.61866702 -342 1222 C-341.4548877 1221.52723633 -340.90977539 1221.05447266 -340.34814453 1220.56738281 C-331.45554847 1212.80341471 -323.87229223 1204.59576581 -317 1195 C-316.56703613 1194.39929687 -316.13407227 1193.79859375 -315.68798828 1193.1796875 C-309.09253961 1183.92982289 -303.76274398 1174.30222197 -299 1164 C-298.45472656 1162.83726563 -297.90945313 1161.67453125 -297.34765625 1160.4765625 C-281.68620548 1125.64677121 -281.05757399 1087.85285669 -289 1051 C-290.17433594 1050.64808594 -291.34867188 1050.29617188 -292.55859375 1049.93359375 C-322.79025273 1040.73086536 -348.14393249 1027.01085084 -371 1005 C-371.64066406 1004.41089844 -372.28132813 1003.82179688 -372.94140625 1003.21484375 C-378.69528379 997.78136774 -383.27676484 991.31982169 -388 985 C-387.34 984.67 -386.68 984.34 -386 984 C-383.79524415 985.10391113 -381.69254338 986.26515646 -379.5625 987.5 C-343.68958013 1007.37541839 -298.02953781 1011.93901564 -258.57568359 1001.40820312 C-255.0104655 1000.38501656 -251.50452006 999.21313241 -248 998 C-247.18031738 997.72027344 -246.36063477 997.44054688 -245.51611328 997.15234375 C-201.95315394 982.06814872 -167.15923919 951.55795971 -146.796875 910.12109375 C-135.30718804 885.62056114 -130.69400783 861.48145736 -130.5625 834.625 C-130.55269608 833.43722961 -130.55269608 833.43722961 -130.54269409 832.22546387 C-130.18116016 813.62415721 -130.18116016 813.62415721 -135 796 C-137.91792184 795.35598169 -140.80708614 794.81427957 -143.75 794.3125 C-185.63876623 786.47651266 -221.82317452 763.41584882 -248 730 C-248.25579834 730.50225098 -248.51159668 731.00450195 -248.77514648 731.52197266 C-258.28893964 750.11721016 -268.6581044 766.69148761 -283 782 C-283.88429688 782.95003906 -284.76859375 783.90007813 -285.6796875 784.87890625 C-318.93439323 819.81986302 -364.97490229 833.42525654 -412 835 C-412.99 838.63 -413.98 842.26 -415 846 C-415.33 846 -415.66 846 -416 846 C-416.33 841.71 -416.66 837.42 -417 833 C-418.49273438 832.97873047 -418.49273438 832.97873047 -420.015625 832.95703125 C-451.69879212 832.05707239 -483.22817543 818.32329027 -508 799 C-508.92554688 798.29617188 -509.85109375 797.59234375 -510.8046875 796.8671875 C-522.82160256 787.42781364 -533.30717964 776.55629608 -542 764 C-538.65027673 764 -537.29328204 764.68778668 -534.34375 766.1953125 C-533.41361084 766.66122803 -532.48347168 767.12714355 -531.52514648 767.60717773 C-530.52684814 768.10805908 -529.5285498 768.60894043 -528.5 769.125 C-518.19212827 774.15160381 -508.1034065 778.15658552 -497 781 C-495.87875732 781.31106689 -495.87875732 781.31106689 -494.73486328 781.62841797 C-468.07556871 788.80832166 -434.29265757 788.06485565 -408 780 C-407.16178711 779.75894531 -406.32357422 779.51789062 -405.45996094 779.26953125 C-379.22745503 771.61543072 -355.46461906 757.03446173 -336 738 C-334.99581715 737.05619939 -333.99059127 736.11350742 -332.984375 735.171875 C-301.5117422 705.27111053 -284.79199726 661.21078381 -283.61254883 618.31787109 C-283.17563475 587.17122521 -290.54307336 553.61474903 -307.828125 527.20703125 C-310.75627487 524.23148327 -313.95546442 522.25721891 -317.5625 520.1875 C-318.67492065 519.54228394 -318.67492065 519.54228394 -319.80981445 518.8840332 C-328.21011126 514.13710695 -337.00805169 510.46273786 -346 507 C-346.66193359 506.74347656 -347.32386719 506.48695313 -348.00585938 506.22265625 C-354.05277144 503.9041511 -359.80215845 502.01809626 -366.1875 500.9375 C-376.32418206 498.56911634 -382.83126946 487.87651838 -388.07421875 479.546875 C-388.37972656 479.03640625 -388.68523437 478.5259375 -389 478 C-385.69514675 479.2878616 -382.49090319 480.68478781 -379.3046875 482.2421875 C-353.49867378 494.76499526 -328.32244602 501.2222636 -299.5 501.125 C-297.78103516 501.13080078 -297.78103516 501.13080078 -296.02734375 501.13671875 C-288.96333214 501.12868233 -282.02125783 500.77915374 -275 500 C-275.23066162 499.3611084 -275.46132324 498.7222168 -275.69897461 498.06396484 C-280.33758676 484.66415808 -279.44293946 468.95852143 -274 456 C-273.67257812 455.14535156 -273.34515625 454.29070312 -273.0078125 453.41015625 C-267.11508676 439.79666942 -255.22984579 430.48127344 -241.94140625 424.66015625 C-226.94566125 418.94264696 -212.6412429 419.68856706 -198 426 C-189.28170483 430.11871499 -182.16457499 435.53977318 -176 443 C-176 443.66 -176 444.32 -176 445 C-170.87128191 442.52111959 -168.08825169 438.76251138 -164.75 434.3125 C-164.18007324 433.55791504 -163.61014648 432.80333008 -163.02294922 432.02587891 C-157.61288361 424.7174912 -153.11996158 417.09337142 -149 409 C-148.68869141 408.4004248 -148.37738281 407.80084961 -148.05664062 407.18310547 C-130.47048951 372.99510275 -124.54690993 329.53355935 -134.453125 292.07568359 C-134.97738329 290.08584254 -135.43438703 288.09181795 -135.875 286.08203125 C-139.10682811 272.39004521 -144.78111157 259.1125997 -151.96875 247.03125 C-153 245 -153 245 -153 242 C-151.51812539 243.16322516 -150.0396936 244.33083611 -148.5625 245.5 C-147.64210938 246.221875 -146.72171875 246.94375 -145.7734375 247.6875 C-143 250 -143 250 -140.7890625 252.3125 C-136.88293194 256.3783608 -134.05385191 258.55152946 -128.3125 258.8125 C-87.68214717 256.02182385 -45.61478541 232.72716242 -18.80908203 202.41333008 C-1.20731423 181.86957938 10.39155249 158.88884004 18 133 C18.268125 132.12118164 18.53625 131.24236328 18.8125 130.33691406 C22.60750824 117.35324212 23.38081866 104.42735711 23.3125 91 C23.31034485 90.23476013 23.3081897 89.46952026 23.30596924 88.68109131 C23.1719838 58.91696143 17.73733304 28.83606189 0.93774414 3.62231445 C0 2 0 2 0 0 Z M-277 548 C-277.33 549.65 -277.66 551.3 -278 553 C-276.38605009 555.55671122 -276.38605009 555.55671122 -274.0625 557.8125 C-273.31097656 558.60269531 -272.55945312 559.39289062 -271.78515625 560.20703125 C-271.19605469 560.79871094 -270.60695313 561.39039063 -270 562 C-267.76932675 559.21325634 -266.21142033 556.53022699 -264.8125 553.25 C-264.214375 551.8475 -263.61625 550.445 -263 549 C-269.93 548.505 -269.93 548.505 -277 548 Z " fill="#743391" transform="translate(1399,463)"/>
<path d="M0 0 C0.70078674 -0.00067474 1.40157349 -0.00134949 2.12359619 -0.00204468 C20.38845792 0.02589442 37.3890555 2.32197546 54.6875 8.25 C55.35587891 8.47558594 56.02425781 8.70117188 56.71289062 8.93359375 C66.45747898 12.26652542 75.72067103 16.3703963 84.79443359 21.23974609 C86.02998851 21.89911239 87.27234809 22.54592659 88.52197266 23.17822266 C105.30249337 31.704367 110.88857454 48.9179852 116.9375 65.72265625 C118.90860638 71.81306698 120.4221083 78.01892708 121.875 84.25 C122.04225586 84.94939697 122.20951172 85.64879395 122.38183594 86.36938477 C131.84425961 128.93565869 121.74373029 175.80271002 98.75708008 212.28515625 C93.66075804 220.07305485 87.70600115 227.16732789 81.6875 234.25 C80.99398438 235.08660156 80.30046875 235.92320312 79.5859375 236.78515625 C75.6629285 241.43365322 71.37564859 245.38394381 66.6875 249.25 C65.90608643 249.90790527 65.90608643 249.90790527 65.10888672 250.57910156 C56.13691542 258.11666666 46.97945694 264.64100219 36.6875 270.25 C36.05763184 270.59514648 35.42776367 270.94029297 34.77880859 271.29589844 C15.12822855 281.92187851 -12.40076892 293.53729633 -35.3125 291.25 C-36.9453125 290.03515625 -36.9453125 290.03515625 -38.4375 288.3125 C-43.23727613 283.13128471 -48.95189136 277.43030432 -55.3125 274.25 C-54.6834375 275.36632812 -54.054375 276.48265625 -53.40625 277.6328125 C-42.13418434 298.0500137 -36.01605419 318.26049847 -32.3125 341.25 C-32.00892578 342.99990234 -32.00892578 342.99990234 -31.69921875 344.78515625 C-26.95605434 387.28199293 -39.88374155 431.56281789 -65.9296875 465.27734375 C-80.93810976 484.00096562 -97.32714954 499.31665369 -118.3125 511.25 C-120.01212891 512.24773437 -120.01212891 512.24773437 -121.74609375 513.265625 C-157.68766281 533.82745478 -203.31919085 538.88036352 -243.3125 529.25 C-244.08045898 529.06808105 -244.84841797 528.88616211 -245.63964844 528.69873047 C-256.32144325 526.07862341 -266.26132201 522.01332763 -276.15771484 517.25439453 C-278.21435363 516.29574826 -280.28976878 515.43635211 -282.39453125 514.58984375 C-293.98370642 509.62905143 -298.86724856 501.28471714 -304.3125 490.25 C-304.65748535 489.55777344 -305.0024707 488.86554688 -305.35791016 488.15234375 C-312.09418455 474.34889026 -317.17770791 459.27610342 -320.3125 444.25 C-320.50585938 443.33347656 -320.69921875 442.41695312 -320.8984375 441.47265625 C-327.30804585 406.12691744 -321.48667116 369.53922469 -306.3125 337.25 C-305.69761719 335.89841797 -305.69761719 335.89841797 -305.0703125 334.51953125 C-297.93215997 319.43095367 -287.4924384 304.65977836 -275.3125 293.25 C-274.53519531 292.47140625 -273.75789063 291.6928125 -272.95703125 290.890625 C-264.28692655 282.23332695 -255.56625613 274.96224685 -245.3125 268.25 C-244.44367188 267.64542969 -243.57484375 267.04085938 -242.6796875 266.41796875 C-223.63788272 253.51962086 -200.73726802 247.06450908 -178.3125 243.25 C-176.63027344 242.95222656 -176.63027344 242.95222656 -174.9140625 242.6484375 C-170.05658576 242.11105938 -165.2573551 242.14411612 -160.375 242.1875 C-159.40498047 242.19201172 -158.43496094 242.19652344 -157.43554688 242.20117188 C-155.0611324 242.2128685 -152.68684979 242.22925914 -150.3125 242.25 C-150.67601562 241.47140625 -151.03953125 240.6928125 -151.4140625 239.890625 C-169.6734323 199.25182246 -171.69946518 152.429597 -156.30322266 110.50146484 C-146.49156242 85.25927062 -131.66741437 59.09065356 -109.40234375 42.8125 C-107.36776539 41.29131992 -105.54741663 39.66542255 -103.6875 37.9375 C-80.89733318 17.84439434 -48.30412094 4.10207938 -18.13378906 1.49389648 C-12.08594236 0.68400388 -6.33640543 0.00539977 0 0 Z " fill="#904FA5" transform="translate(714.3125,431.75)"/>
<path d="M0 0 C0.78906738 0.40702148 1.57813477 0.81404297 2.39111328 1.23339844 C12.52144622 6.62001022 18.18881743 11.44072676 23.3125 21.875 C23.82748047 22.89674316 24.34246094 23.91848633 24.87304688 24.97119141 C31.72595021 38.83985223 36.13537628 52.93117986 39.1875 68.0625 C39.33848145 68.77003418 39.48946289 69.47756836 39.64501953 70.20654297 C48.41275729 112.13467833 38.25916011 158.18863275 14.9921875 193.89697266 C-7.43998255 227.42763974 -38.74065469 251.14281242 -76.8125 264.0625 C-77.9675 264.4646875 -79.1225 264.866875 -80.3125 265.28125 C-108.5971196 274.61517447 -141.03749217 274.90218448 -169.8125 268.0625 C-170.58335937 267.88058105 -171.35421875 267.69866211 -172.1484375 267.51123047 C-187.90170517 263.64546149 -202.46622903 256.48880497 -216.8125 249.0625 C-201.60015105 267.34623211 -201.60015105 267.34623211 -183.8125 283.0625 C-182.82378906 283.83980469 -181.83507813 284.61710937 -180.81640625 285.41796875 C-161.3527666 300.32387527 -138.56909769 309.69199254 -114.8125 315.0625 C-109.08752505 346.17501269 -111.02490736 377.23531573 -121.8125 407.0625 C-122.09641602 407.84979492 -122.38033203 408.63708984 -122.67285156 409.44824219 C-130.24847232 429.97773143 -141.92271633 448.00577992 -156.875 463.94921875 C-158.85408446 466.03848947 -158.85408446 466.03848947 -160.5625 468.39453125 C-184.55983935 496.84970968 -226.54241378 515.05503033 -263.00708008 518.86621094 C-269.55591102 519.32441824 -276.12538646 519.30663704 -282.6875 519.3125 C-283.46839996 519.31350708 -284.24929993 519.31451416 -285.05386353 519.31555176 C-296.90449327 519.30521448 -308.22257572 518.7015338 -319.8125 516.0625 C-321.14048613 515.79228539 -322.46861119 515.52275258 -323.796875 515.25390625 C-337.79026438 512.2457238 -355.44929165 507.03475128 -366.8125 498.0625 C-368.46462961 493.55831043 -366.64786351 490.00022479 -365.125 485.6875 C-356.30392494 458.72219962 -353.60931533 426.81594683 -360.8125 399.0625 C-361.01649414 398.23830566 -361.22048828 397.41411133 -361.43066406 396.56494141 C-365.41381982 380.71059 -371.39395731 366.54402254 -378.875 352.0625 C-379.27428711 351.28503418 -379.67357422 350.50756836 -380.08496094 349.70654297 C-382.55501217 345.03675938 -385.30091696 340.91772387 -388.65527344 336.83178711 C-389.8125 335.0625 -389.8125 335.0625 -390 331.625 C-389.608125 330.449375 -389.21625 329.27375 -388.8125 328.0625 C-388.57861572 327.30888184 -388.34473145 326.55526367 -388.10375977 325.77880859 C-386.9651946 322.99869079 -385.95740101 321.18602947 -383.8125 319.0625 C-379.07030555 317.80560297 -374.44114298 317.98719889 -369.5625 318.125 C-366.99483757 318.14431541 -364.42710704 318.15620589 -361.859375 318.16015625 C-360.64209717 318.16426514 -359.42481934 318.16837402 -358.1706543 318.17260742 C-353.84212621 318.03068331 -349.9700445 317.19063096 -345.8125 316.0625 C-343.87807219 315.73151425 -341.94076582 315.41653135 -340 315.125 C-312.95249292 310.65687462 -285.55852819 298.11922824 -264.8125 280.0625 C-264.00554687 279.36511719 -263.19859375 278.66773438 -262.3671875 277.94921875 C-259.8099946 275.6926363 -257.30446079 273.39086642 -254.8125 271.0625 C-253.93722656 270.25296875 -253.06195312 269.4434375 -252.16015625 268.609375 C-221.74262087 239.45741857 -204.71177727 197.17322407 -203.609375 155.3203125 C-203.21595901 124.43339885 -209.5009774 95.45261296 -224.9765625 68.5078125 C-225.8125 66.0625 -225.8125 66.0625 -225.14453125 63.5546875 C-219.86624681 53.67918757 -213.13063286 45.44832398 -205.8125 37.0625 C-204.74877253 35.771844 -203.68599338 34.48040451 -202.625 33.1875 C-199.35156929 29.40834264 -195.65805529 26.24606612 -191.8125 23.0625 C-191.05283936 22.41837158 -191.05283936 22.41837158 -190.27783203 21.76123047 C-171.23317491 5.64992652 -149.29096425 -7.26026582 -124.8125 -12.9375 C-123.5140918 -13.2466333 -123.5140918 -13.2466333 -122.18945312 -13.56201172 C-119.21313278 -14.26589842 -116.23283568 -14.94927826 -113.25 -15.625 C-112.31631592 -15.83995117 -111.38263184 -16.05490234 -110.4206543 -16.27636719 C-73.08556547 -24.41604819 -33.61660719 -17.41263983 0 0 Z " fill="#904EA5" transform="translate(1519.8125,692.9375)"/>
<path d="M0 0 C2.0455284 7.42633602 3.19786145 14.9595205 4.3828125 22.5625 C4.6038437 23.96359105 4.82519292 25.36463196 5.04684448 26.765625 C5.62537819 30.42783171 6.19962866 34.0906972 6.77294922 37.75372314 C7.36033911 41.50159245 7.95183334 45.24881372 8.54296875 48.99609375 C9.69930017 56.33010575 10.85110132 63.66481955 12 71 C15.77704586 69.76504663 19.32400391 68.45803538 22.87890625 66.6796875 C23.78930664 66.23069092 24.69970703 65.78169434 25.63769531 65.3190918 C26.60288086 64.8425415 27.56806641 64.36599121 28.5625 63.875 C39.48852663 58.57450394 50.53701976 54.00076062 62 50 C62.77730469 49.72849121 63.55460937 49.45698242 64.35546875 49.17724609 C83.82426497 42.48794621 103.71037111 38.10546041 124.0625 35.1875 C124.78872559 35.0822702 125.51495117 34.97704041 126.26318359 34.86862183 C140.77568923 32.79208879 155.20275878 31.81835042 169.875 31.875 C171.45861328 31.86919922 171.45861328 31.86919922 173.07421875 31.86328125 C174.07839844 31.86457031 175.08257813 31.86585938 176.1171875 31.8671875 C177.01034668 31.86831543 177.90350586 31.86944336 178.82373047 31.87060547 C181 32 181 32 183 33 C181.7546461 87.04835946 165.19344585 145.57989791 128.76953125 186.87890625 C126.89345351 189.12771467 125.44384425 191.45650967 124 194 C124.56162842 194.09429794 125.12325684 194.18859589 125.7019043 194.28575134 C133.28702134 195.67040788 140.49054966 197.92770968 147.8125 200.31640625 C149.11606915 200.73757593 150.41978285 201.15829846 151.72363281 201.57859802 C154.43420699 202.45358051 157.14359215 203.33211417 159.85205078 204.21362305 C163.32507736 205.34393254 166.80011076 206.46791048 170.27592468 207.58961582 C173.60131148 208.66306756 176.92569265 209.73961725 180.25 210.81640625 C181.49885986 211.22057266 182.74771973 211.62473907 184.03442383 212.04115295 C185.18322021 212.41501633 186.3320166 212.7888797 187.515625 213.17407227 C188.52915039 213.5033522 189.54267578 213.83263214 190.58691406 214.17189026 C193 215 193 215 195 216 C194.07717776 220.34552416 191.9135151 223.7239097 189.5625 227.4375 C189.11656494 228.14543701 188.67062988 228.85337402 188.21118164 229.58276367 C183.86076165 236.38597444 179.05993117 242.70927476 174 249 C173.16970629 250.05921708 172.34027433 251.11911025 171.51171875 252.1796875 C164.98990124 260.39867192 164.98990124 260.39867192 161 262 C160.48953125 261.45472656 159.9790625 260.90945313 159.453125 260.34765625 C149.88049614 250.41859972 138.89309023 242.89991279 127 236 C125.87207031 235.34128906 124.74414062 234.68257812 123.58203125 234.00390625 C108.78890406 225.61575585 92.56445728 219.74932027 76 216 C75.09894531 215.78730469 74.19789063 215.57460938 73.26953125 215.35546875 C30.19408114 206.29724248 -15.24493066 217.67958614 -51.85546875 240.8828125 C-60.0353533 246.39026272 -67.60279709 252.4735949 -74.875 259.125 C-75.64166992 259.82447754 -75.64166992 259.82447754 -76.42382812 260.53808594 C-83.27535794 266.940845 -89.04634692 274.14272221 -94.5 281.75 C-95.34473877 282.92526245 -95.34473877 282.92526245 -96.20654297 284.12426758 C-102.01191853 292.28949061 -107.37384309 300.61465271 -111 310 C-114.40972637 308.57989704 -116.03616603 306.97468401 -118.1875 304 C-128.11957245 290.83422954 -140.03391238 278.85838216 -154 270 C-154.62471191 269.59426758 -155.24942383 269.18853516 -155.89306641 268.77050781 C-166.83042544 261.68964475 -177.9456289 255.92858989 -190 251 C-191.10601563 250.54496094 -192.21203125 250.08992187 -193.3515625 249.62109375 C-195.56112823 248.72793126 -197.77633497 247.85703115 -200 247 C-200.74770228 240.4599773 -201.16762884 234.00706926 -201.203125 227.42578125 C-201.21018463 226.54757217 -201.21724426 225.6693631 -201.22451782 224.76454163 C-201.55697413 171.2618111 -191.11680287 118.50519685 -155 77 C-154.29875 76.07960938 -153.5975 75.15921875 -152.875 74.2109375 C-152.25625 73.48132813 -151.6375 72.75171875 -151 72 C-150.34 72 -149.68 72 -149 72 C-147.48217773 74.21777344 -147.48217773 74.21777344 -145.68359375 77.359375 C-145.35480225 77.92781631 -145.02601074 78.49625763 -144.68725586 79.08192444 C-143.97251016 80.31896748 -143.26105196 81.55791436 -142.55245972 82.79849243 C-140.66484581 86.10237217 -138.7532714 89.39234322 -136.84375 92.68359375 C-136.44957382 93.36431442 -136.05539764 94.0450351 -135.64927673 94.74638367 C-131.34530209 102.16246054 -126.90158371 109.49203919 -122.4375 116.8125 C-122.06084198 117.43080688 -121.68418396 118.04911377 -121.29611206 118.68615723 C-119.20049569 122.12599572 -117.10185132 125.56396804 -115 129 C-114.59910156 127.92492187 -114.19820312 126.84984375 -113.78515625 125.7421875 C-101.68271505 93.53031304 -87.03973192 65.08885603 -62 41 C-61.20207031 40.19949219 -60.40414063 39.39898437 -59.58203125 38.57421875 C-44.61010638 23.64759471 -28.05553043 13.01059994 -9.25 3.5 C-8.55793457 3.14921387 -7.86586914 2.79842773 -7.15283203 2.43701172 C-2.24562689 0 -2.24562689 0 0 0 Z " fill="#7CAC44" transform="translate(1260,220)"/>
<path d="M0 0 C5.60546547 1.52225101 10.03699803 4.27046808 14.875 7.375 C16.12748535 8.17574951 16.12748535 8.17574951 17.40527344 8.99267578 C30.7560626 17.63037777 42.82863441 27.16951431 54.21826172 38.26513672 C55.94863127 39.94998271 57.69404209 41.61796939 59.44140625 43.28515625 C67.06521189 50.63915186 73.78213563 58.42728488 80 67 C80.70092773 67.9590625 80.70092773 67.9590625 81.41601562 68.9375 C88.27057087 78.43555761 94.03253102 88.43310029 99.4375 98.8125 C100.01669189 99.92069092 100.59588379 101.02888184 101.19262695 102.1706543 C104.99911122 109.62361208 108.14825928 117.13532665 111 125 C111.66 125 112.32 125 113 125 C114.36244997 123.62056152 114.36244997 123.62056152 115.73046875 121.765625 C116.27880371 121.05599609 116.82713867 120.34636719 117.39208984 119.61523438 C117.9845752 118.83470703 118.57706055 118.05417969 119.1875 117.25 C119.80318848 116.44884766 120.41887695 115.64769531 121.05322266 114.82226562 C126.35217919 107.90674627 131.56923744 100.92914574 136.78027344 93.94726562 C141.0740569 88.20247948 145.43939643 82.53683501 150 77 C154.04898731 78.34966244 155.69606756 81.09337124 158.1875 84.375 C158.67653809 85.01131348 159.16557617 85.64762695 159.66943359 86.30322266 C160.65974138 87.59649391 161.64642891 88.89254573 162.62939453 90.19140625 C163.80310528 91.74018595 164.99186743 93.27753945 166.18359375 94.8125 C193.32444282 130.63623639 204.73756536 177.47953032 199.0793457 221.85229492 C198.58433684 225.19707443 198.01094772 228.52135247 197.38378906 231.84375 C197.03360476 233.8111977 196.78841736 235.79659641 196.5546875 237.78125 C196.07198884 240.93794602 195.59489256 243.23551956 194 246 C190.31353308 248.56112439 186.24732096 249.6426551 182 251 C150.69356234 263.2035669 124.37409426 283.62465642 105 311 C102.71383094 308.18948024 101.03433981 305.25424153 99.40063477 302.02636719 C95.03374184 293.4054896 89.86590496 285.66412602 84 278 C83.28070312 277.05511719 82.56140625 276.11023438 81.8203125 275.13671875 C59.84013483 247.31931441 29.67895867 229.23307126 -4 219 C-5.30517578 218.57267578 -5.30517578 218.57267578 -6.63671875 218.13671875 C-21.61291015 213.55217036 -37.13293116 212.72018566 -52.6875 212.75 C-53.384198 212.75077545 -54.080896 212.7515509 -54.79870605 212.75234985 C-62.10829352 212.33867434 -62.10829352 212.33867434 -69 214 C-70.96974911 214.29314253 -72.94020325 214.58227333 -74.91381836 214.84814453 C-109.91736995 219.67454436 -141.2209541 236.15271723 -167 260 C-179.31089269 250.15128585 -188.68837855 237.59163854 -198 225 C-198.49274414 224.35240723 -198.98548828 223.70481445 -199.49316406 223.03759766 C-203 218.33922611 -203 218.33922611 -203 215 C-193.38709379 212.12835216 -183.77332043 209.25962827 -174.15841866 206.39466858 C-169.69420904 205.0643638 -165.23030824 203.733041 -160.76708984 202.39941406 C-156.46250842 201.11322882 -152.15714661 199.8296885 -147.85122299 198.54800415 C-146.20584722 198.05773695 -144.56075838 197.56650577 -142.9159584 197.0743103 C-140.61805669 196.38685509 -138.31917285 195.70278685 -136.02001953 195.01953125 C-135.33525543 194.813815 -134.65049133 194.60809875 -133.94497681 194.39614868 C-129.22810432 193 -129.22810432 193 -127 193 C-127.54527344 192.16339844 -128.09054687 191.32679688 -128.65234375 190.46484375 C-156.71900496 147.22684439 -188.29983933 88.93401004 -187 36 C-127.05131525 35.00772485 -72.26734009 47.20338316 -18 73 C-17.89555069 72.3728006 -17.79110138 71.7456012 -17.68348694 71.09939575 C-16.31047864 63.18356482 -14.48384587 55.41487916 -12.55859375 47.6171875 C-12.22735756 46.26771546 -11.89631146 44.91819676 -11.56544495 43.56863403 C-10.87758363 40.7662464 -10.18734118 37.96445934 -9.49536133 35.16308594 C-8.60739164 31.56736316 -7.72571673 27.97013011 -6.84577847 24.37243462 C-6.16633388 21.59753989 -5.48354664 18.82347622 -4.7997303 16.04965591 C-4.47292445 14.72218934 -4.14718951 13.39445865 -3.82253838 12.06646347 C-3.37136104 10.22299283 -2.91518051 8.38074882 -2.45874023 6.53857422 C-2.07140968 4.96618484 -2.07140968 4.96618484 -1.67625427 3.36203003 C-1 1 -1 1 0 0 Z " fill="#7CAC44" transform="translate(767,220)"/>
<path d="M0 0 C3.45888849 1.23481618 5.06871155 3.0703172 7.1875 6 C11.15949068 11.29031735 15.49763148 16.1575245 20 21 C20.55171875 21.60585937 21.1034375 22.21171875 21.671875 22.8359375 C39.07412715 41.18583705 66.47363773 57.38645524 91.1484375 63.0078125 C100.27728939 65.09709613 100.27728939 65.09709613 102.45703125 67.8203125 C103.33850051 70.2432674 103.70190652 72.43945341 104 75 C104.27457031 76.41925781 104.27457031 76.41925781 104.5546875 77.8671875 C108.27776599 97.50260147 108.35451515 118.3159583 105 138 C104.70802734 139.81951172 104.70802734 139.81951172 104.41015625 141.67578125 C98.99244789 172.03418254 84.55325868 200.18128629 64 223 C62.85392478 224.37479839 61.70806114 225.74977322 60.5625 227.125 C42.99833245 246.9314017 18.92448442 262.40713518 -6 271 C-6.6811084 271.24943359 -7.3622168 271.49886719 -8.06396484 271.75585938 C-49.49952945 286.88446309 -96.15267953 284.16291403 -136.10473633 265.8527832 C-138.79143447 264.58682934 -141.45989809 263.292942 -144.10375977 261.93969727 C-145.41018271 261.29228875 -146.73860915 260.68808121 -148.08178711 260.12084961 C-153.49303668 257.74485532 -156.03067845 255.02678143 -158.9375 249.9375 C-159.55854614 248.89444702 -159.55854614 248.89444702 -160.19213867 247.83032227 C-175.92474488 220.8178471 -184.44990203 191.51591301 -184.4375 160.25 C-184.43823517 159.43974365 -184.43897034 158.6294873 -184.43972778 157.79467773 C-184.37942273 132.36032041 -178.8571027 107.61378515 -167 85 C-165.4365686 84.970271 -165.4365686 84.970271 -163.84155273 84.93994141 C-159.89945052 84.86270319 -155.95766219 84.77419079 -152.01586914 84.68261719 C-150.3238758 84.64480728 -148.63181507 84.60988012 -146.93969727 84.578125 C-133.02440631 84.31393674 -119.31992262 83.54674037 -105.8125 79.875 C-104.63421631 79.55740723 -104.63421631 79.55740723 -103.43212891 79.23339844 C-63.81148653 68.08347691 -25.70164239 42.19461023 -4.86230469 6.02539062 C-4.51329102 5.39310547 -4.16427734 4.76082031 -3.8046875 4.109375 C-2 1 -2 1 0 0 Z " fill="#904EA5" transform="translate(1009,1447)"/>
<path d="M0 0 C0.95777344 0.49628906 1.91554688 0.99257813 2.90234375 1.50390625 C7.23925321 3.72947641 11.6107524 5.87973791 16 8 C16.64646484 8.31453125 17.29292969 8.6290625 17.95898438 8.953125 C27.61212345 13.55273986 37.55790406 16.36570281 47.9375 18.875 C49.17008545 19.17349854 50.4026709 19.47199707 51.67260742 19.77954102 C77.32231041 25.73986143 106.22613671 24.94305011 131.69848633 18.23339844 C136.80556266 16.90278133 136.80556266 16.90278133 139 18 C137.96552734 19.61841797 137.96552734 19.61841797 136.91015625 21.26953125 C118.42716627 50.58304408 107.54517877 81.37153583 107.5625 116.25 C107.56209717 117.08459747 107.56169434 117.91919495 107.5612793 118.77908325 C107.63539863 145.54862375 113.30169057 172.58162042 127.38183594 195.6875 C130.12644129 200.35309106 130.12644129 200.35309106 129.49609375 203.578125 C123.71467292 212.937083 117.20885366 221.69099999 110 230 C109.59136719 230.56589844 109.18273437 231.13179687 108.76171875 231.71484375 C105.79713169 233.87748043 102.24009816 233.9696757 98.6875 234.4375 C90.55208621 235.6494691 82.85489698 237.53653178 75 240 C74.05415039 240.26917236 73.10830078 240.53834473 72.13378906 240.81567383 C64.15597687 243.13845647 56.827743 246.15582373 49.375 249.8125 C48.3334375 250.30814453 47.291875 250.80378906 46.21875 251.31445312 C36.79729052 255.87833967 27.99854981 261.25956807 19.6875 267.625 C19.14955811 268.03032959 18.61161621 268.43565918 18.05737305 268.85327148 C15.01228407 271.20779428 12.3056382 273.66451481 9.6953125 276.49609375 C4.09252336 282.47137199 0.07661445 286.56430319 -8.39379883 287.24975586 C-11.95616933 287.3398404 -15.44413182 287.24592739 -19 287 C-18.62746094 287.73605469 -18.25492188 288.47210937 -17.87109375 289.23046875 C-17.39800781 290.20628906 -16.92492187 291.18210937 -16.4375 292.1875 C-15.96183594 293.15042969 -15.48617188 294.11335938 -14.99609375 295.10546875 C-13.85702925 298.41545617 -14.08208091 299.67975373 -15 303 C-16.08813477 305.13378906 -16.08813477 305.13378906 -17.44140625 307.265625 C-17.93882324 308.06427979 -18.43624023 308.86293457 -18.94873047 309.68579102 C-19.74754639 310.95507446 -19.74754639 310.95507446 -20.5625 312.25 C-43.87996323 350.34072689 -52.21414768 395.23644166 -42 439 C-41.82919922 439.73492676 -41.65839844 440.46985352 -41.48242188 441.22705078 C-39.71643171 448.63555268 -37.53098827 455.72419653 -34.5390625 462.73046875 C-34 465 -34 465 -34.7734375 467.17578125 C-37.58245159 471.35351876 -40.78219108 471.86270582 -45.4375 472.9375 C-46.89992909 473.28957834 -48.36216854 473.64244532 -49.82421875 473.99609375 C-50.54013184 474.16737793 -51.25604492 474.33866211 -51.99365234 474.51513672 C-56.36049069 475.57044713 -60.68448374 476.75315174 -65 478 C-65.88171875 478.23847656 -66.7634375 478.47695312 -67.671875 478.72265625 C-94.79735514 486.7778748 -121.73917617 506.8870114 -139.73046875 528.4765625 C-144.00495139 533.60594166 -149.61851602 533.30861588 -156 534 C-160.50491022 534.27630641 -164.98735943 534.33472976 -169.5 534.3125 C-171.32748779 534.30404053 -171.32748779 534.30404053 -173.19189453 534.29541016 C-197.48786218 533.97350372 -221.17042171 528.7685623 -243 518 C-244.1147168 517.46681152 -244.1147168 517.46681152 -245.25195312 516.92285156 C-269.82131028 505.10635461 -294.80859302 485.71222432 -309 462 C-305.78223542 463.19347416 -302.72389362 464.60745414 -299.65625 466.13671875 C-277.49789051 477.14760886 -254.59384842 484.97800287 -229.609375 485.23828125 C-228.83088699 485.24798447 -228.05239899 485.25768768 -227.25032043 485.26768494 C-224.75016055 485.29247721 -222.25027029 485.30519146 -219.75 485.3125 C-218.89751678 485.31511841 -218.04503357 485.31773682 -217.16671753 485.32043457 C-205.11010858 485.32440808 -193.67447251 484.82854173 -181.99511719 481.55566406 C-180.00875521 481.00243843 -178.01620549 480.52090391 -176.0078125 480.0546875 C-133.969673 469.82454721 -97.16003483 441.87126028 -74.4375 405.375 C-52.69006321 369.25722793 -41.85992324 324.70710143 -52 283 C-52.55236328 282.8548999 -53.10472656 282.7097998 -53.67382812 282.56030273 C-65.95044276 279.29662525 -77.59468138 275.61527304 -89 270 C-89.69577148 269.66097656 -90.39154297 269.32195312 -91.10839844 268.97265625 C-116.42137873 256.5045577 -137.00341237 238.42515554 -154 216 C-149.98102369 216 -147.22031664 217.79754384 -143.75 219.625 C-130.60986211 226.34457465 -117.19872868 231.0723223 -103 235 C-103.2165625 234.22398437 -103.433125 233.44796875 -103.65625 232.6484375 C-107.64567816 217.1709338 -107.34049846 201.7515813 -99.11206055 187.62988281 C-97.49555737 185.02332313 -95.76813708 182.5054574 -94 180 C-93.59007812 179.38640625 -93.18015625 178.7728125 -92.7578125 178.140625 C-85.50812447 168.29798285 -71.11679106 160.70839473 -59.2890625 158.2421875 C-50.83354258 157.34757618 -42.07252628 157.09632294 -34 160 C-33.01644531 160.31839844 -32.03289062 160.63679687 -31.01953125 160.96484375 C-14.86088015 166.59100949 -4.00987344 176.77988032 3.4050293 191.98754883 C7.96943079 201.8865439 8.30915508 211.19674756 8 222 C48.81143418 200.25241036 82.15748053 167.53093681 96.23901367 122.26269531 C96.8502661 120.18104253 97.43084453 118.09351955 98 116 C98.19384277 115.31115723 98.38768555 114.62231445 98.58740234 113.91259766 C102.8173971 98.7536341 104.32499912 83.66712572 105 68 C104.11441406 67.85304688 103.22882813 67.70609375 102.31640625 67.5546875 C86.71651309 64.73014909 72.72289076 59.34570736 58.74707031 51.91992188 C57.21677275 51.11414194 55.66825968 50.34315247 54.1171875 49.578125 C41.51497049 43.1829701 30.14186167 33.75566495 20 24 C19.09765625 23.13761719 18.1953125 22.27523437 17.265625 21.38671875 C11.06448317 15.33118384 5.04928089 9.06899324 0 2 C0 1.34 0 0.68 0 0 Z " fill="#743391" transform="translate(872,726)"/>
<path d="M0 0 C0.33 0 0.66 0 1 0 C1.11214844 1.71316406 1.11214844 1.71316406 1.2265625 3.4609375 C3.51154557 33.27512156 11.853557 64.26679546 29.9453125 88.5703125 C31 91 31 91 30.38671875 93.96875 C18.36237883 120.25294092 -7.30026774 142.98123304 -32 157 C-32.64839844 157.36867188 -33.29679687 157.73734375 -33.96484375 158.1171875 C-46.99835437 165.45931635 -60.13524326 170.8182147 -74.5625 174.75 C-75.28099121 174.94883789 -75.99948242 175.14767578 -76.73974609 175.35253906 C-90.46413364 178.90158228 -104.35495202 179.36071995 -118.4375 179.625 C-120.15170977 179.66330636 -121.86590291 179.70236471 -123.58007812 179.7421875 C-127.7199123 179.83676177 -131.85983538 179.92127383 -136 180 C-142.22737316 194.73865806 -147.5584711 209.31006873 -150.25 225.125 C-151.71514363 232.91426641 -154.52816286 240.02607671 -157.38305664 247.40087891 C-184.80167767 318.73684353 -192.0344144 399.72176777 -179.41918945 475.04833984 C-178.51425753 481.42028332 -177.99555059 487.44321969 -180.375 493.5 C-187.72443398 500.49946093 -198.98314606 501.42945207 -208.625 503.0625 C-209.35811401 503.1897345 -210.09122803 503.31696899 -210.84655762 503.44805908 C-221.93952145 505.3623422 -233.04256509 506.82824408 -244.25 507.875 C-245.52568848 507.99496338 -246.80137695 508.11492676 -248.11572266 508.23852539 C-268.56417187 509.97999203 -296.64844219 511.58808722 -314.16015625 498.70703125 C-318.39771301 494.77537031 -321.56111446 489.85180726 -322 484 C-322.103125 482.845 -322.20625 481.69 -322.3125 480.5 C-322.04468731 467.52325777 -314.93272361 455.018482 -306.3125 445.6875 C-290.90722853 431.42782602 -271.24754005 427.21025476 -250.84375 427.67578125 C-239.2165887 428.24138823 -227.96119185 431.26682234 -217 435 C-217.0169693 434.39311844 -217.0339386 433.78623688 -217.05142212 433.16096497 C-217.87963522 403.04018992 -218.68908339 373.04385418 -216 343 C-215.938125 342.30225464 -215.87625 341.60450928 -215.8125 340.88562012 C-212.70105178 306.40767821 -206.17974712 272.36319536 -197 239 C-196.55068115 237.36442139 -196.55068115 237.36442139 -196.09228516 235.69580078 C-189.91831946 213.65273406 -181.54750366 192.22006233 -173 171 C-174.32837891 170.50693359 -174.32837891 170.50693359 -175.68359375 170.00390625 C-195.02049063 162.64980548 -212.27617289 152.49744451 -228 139 C-228.83273437 138.29101562 -229.66546875 137.58203125 -230.5234375 136.8515625 C-239.89398533 128.66341819 -248.58122306 119.72504501 -255 109 C-250.33258446 109.61153036 -246.55068495 111.59521739 -242.4375 113.75 C-209.26504786 130.63690544 -167.55562667 137.38488138 -131 128 C-129.49259763 127.65445596 -127.98476097 127.31080257 -126.4765625 126.96875 C-95.34240235 119.6280197 -68.90122227 104.09649411 -46 82 C-45.21238281 81.26394531 -44.42476562 80.52789063 -43.61328125 79.76953125 C-23.41525606 60.41749665 -9.4021608 33.75479807 -2 7 C-1.62492458 5.68194198 -1.24865839 4.36422213 -0.87109375 3.046875 C-0.58363281 2.04140625 -0.29617188 1.0359375 0 0 Z " fill="#582B6E" transform="translate(978,1353)"/>
<path d="M0 0 C7.74258265 4.56152156 14.06037911 10.38960736 20.50439453 16.57617188 C21.76337522 17.77473136 23.04876399 18.94546337 24.33984375 20.109375 C36.84144228 31.7495971 46.18684416 46.93959447 54 62 C54.64195312 63.08474609 54.64195312 63.08474609 55.296875 64.19140625 C56.21951616 66.56464435 55.77176186 67.59367624 55 70 C54.29509427 71.35404467 53.53769798 72.6814966 52.7421875 73.984375 C52.28497314 74.74556641 51.82775879 75.50675781 51.35668945 76.29101562 C50.62325317 77.50821289 50.62325317 77.50821289 49.875 78.75 C42.28416125 91.69785452 37.02851988 104.30045601 32.6875 118.6875 C32.34952393 119.80382812 32.01154785 120.92015625 31.66333008 122.0703125 C27.8571289 135.16310481 26.64793401 147.66919163 26.68432617 161.22729492 C26.68747351 163.66696476 26.66397861 166.10540184 26.63867188 168.54492188 C26.59498665 179.65061572 27.87774492 190.11170157 30 201 C30.39791524 203.20795915 30.79407441 205.41623644 31.1875 207.625 C31.45688149 209.08360221 31.72703833 210.54206354 32 212 C30.71609375 212.08636719 29.4321875 212.17273438 28.109375 212.26171875 C15.30698913 213.23374271 3.30543771 215.34461408 -9 219 C-10.081604 219.31662598 -10.081604 219.31662598 -11.18505859 219.63964844 C-34.8132198 226.74396932 -56.13458289 240.14774454 -74 257 C-75.22314431 258.02804153 -76.45184283 259.0495327 -77.6875 260.0625 C-91.00160382 271.49660305 -101.0726095 287.51474897 -109 303 C-109.31807617 303.61697754 -109.63615234 304.23395508 -109.96386719 304.86962891 C-120.02349411 324.64725487 -126.99054087 347.49066383 -127.23828125 369.78515625 C-127.24802979 370.51506271 -127.25777832 371.24496918 -127.26782227 371.99699402 C-127.50533196 394.39965067 -125.5464799 414.7640215 -118 436 C-117.5978125 437.13824219 -117.195625 438.27648437 -116.78125 439.44921875 C-114.34494636 446.04754112 -111.46563694 452.19954756 -108.0390625 458.34375 C-106.77367038 461.57858699 -106.82406758 462.74658696 -108 466 C-109.39130468 468.42762628 -110.80028547 470.69860856 -112.375 473 C-113.04764893 473.99012085 -113.04764893 473.99012085 -113.73388672 475.00024414 C-140.25001801 513.35705676 -179.37441482 538.22717272 -225 547.3125 C-246.36003658 550.51004237 -269.92899126 551.19713888 -291 546 C-291.80630859 545.80664062 -292.61261719 545.61328125 -293.44335938 545.4140625 C-332.0087498 535.92644937 -369.38890317 513.38551209 -392 480 C-392 479.34 -392 478.68 -392 478 C-388.72812175 479.27446245 -385.55951546 480.6554184 -382.41015625 482.20703125 C-368.61846879 488.93553463 -355.10369279 494.85117359 -340 498 C-338.73027344 498.27972656 -337.46054687 498.55945313 -336.15234375 498.84765625 C-293.22896683 507.41565665 -246.64332607 497.51253138 -210 474 C-171.12726022 447.37437232 -144.7772208 408.38914231 -135.41357422 362.10107422 C-128.0747494 321.11720727 -136.48112722 282.69229315 -155 246 C-155.66706892 244.66686787 -156.33385894 243.33359601 -157 242 C-154.21142906 243.2929693 -151.97377331 244.70485469 -149.65234375 246.71484375 C-149.04712891 247.23626953 -148.44191406 247.75769531 -147.81835938 248.29492188 C-147.19767578 248.83697266 -146.57699219 249.37902344 -145.9375 249.9375 C-145.31294922 250.47568359 -144.68839844 251.01386719 -144.04492188 251.56835938 C-139.33998772 255.64061295 -139.33998772 255.64061295 -137.42114258 257.66894531 C-136.08540357 259.19918358 -136.08540357 259.19918358 -134.046875 259.14453125 C-133.28890625 259.03496094 -132.5309375 258.92539062 -131.75 258.8125 C-130.85796875 258.69003906 -129.9659375 258.56757812 -129.046875 258.44140625 C-128.04140625 258.29574219 -127.0359375 258.15007812 -126 258 C-124.89140625 257.88527344 -123.7828125 257.77054688 -122.640625 257.65234375 C-89.37928269 253.97646579 -59.50711849 237.97991703 -34 217 C-33.20464844 216.34902344 -32.40929687 215.69804688 -31.58984375 215.02734375 C-26.90142284 211.06160814 -22.89981487 206.73495686 -19 202 C-18.5560791 201.46842285 -18.1121582 200.9368457 -17.65478516 200.38916016 C-0.44366434 179.72331453 11.85642967 156.20913313 18.8125 130.1875 C19.00739014 129.46006592 19.20228027 128.73263184 19.40307617 127.9831543 C22.43484332 115.99638342 23.34412669 104.20046489 23.25 91.875 C23.24689819 91.15144318 23.24379639 90.42788635 23.24060059 89.68240356 C23.09296501 60.26520385 17.42716893 34.49919424 3.69921875 8.3203125 C2.29574824 5.57789885 1.07912503 2.8813186 0 0 Z " fill="#743391" transform="translate(815,463)"/>
<path d="M0 0 C8.02476937 3.38823595 10.8184979 11.45187921 14.0625 18.9375 C14.54001709 20.03433105 15.01753418 21.13116211 15.50952148 22.26123047 C45.88726419 93.12770248 63.66427499 170.89154067 66.13037109 271.57080078 C66.12499748 275.12667074 66.13035763 278.68241503 66.13671875 282.23828125 C66.14735792 314.41056832 66.14735792 314.41056832 64 323 C48.82 322.67 33.64 322.34 18 322 C17.87625 315.44125 17.7525 308.8825 17.625 302.125 C15.57182135 210.97341767 -7.66201022 121.22690066 -55.78759766 43.12670898 C-58.13103632 39.01601745 -58.88650187 34.64396851 -58 30 C-55.3850037 25.1861707 -52.77875724 22.84615177 -48 20.25 C-47.40405029 19.92273926 -46.80810059 19.59547852 -46.1940918 19.25830078 C-39.9493647 15.87360347 -33.57611087 12.72145893 -27.19995117 9.59326172 C-22.62391743 7.34543173 -18.19602139 4.98541162 -13.8125 2.375 C-9.15808062 -0.20429363 -5.25789727 -1.06220147 0 0 Z " fill="#7BAC44" transform="translate(975,138)"/>
<path d="M0 0 C10.50973517 10.80167226 14.21652734 24.02359832 14.5625 38.75 C14.31721857 53.86546813 9.06394663 65.97285579 -0.75 77.3125 C-1.32234375 77.98023438 -1.8946875 78.64796875 -2.484375 79.3359375 C-14.86204489 92.71863187 -36.93388213 104.20923521 -55.0703125 105.7265625 C-67.64650881 106.89326017 -73.04593667 111.20578029 -81.2109375 120.61328125 C-84.91217586 124.69967386 -89.42540608 127.92215938 -93.75 131.3125 C-94.85615507 132.21762749 -95.96021057 133.12532504 -97.0625 134.03515625 C-139.35043806 168.77063937 -208.40247536 211.3125 -265.75 211.3125 C-264.55323381 208.17417164 -263.2153435 205.12455303 -261.796875 202.08203125 C-261.24592163 200.89033325 -261.24592163 200.89033325 -260.68383789 199.67456055 C-259.87668791 197.93625012 -259.0603693 196.20217466 -258.23608398 194.47192383 C-256.20281045 190.07684278 -254.55371716 186.02970651 -253.73828125 181.2421875 C-252.0614131 171.99786633 -252.0614131 171.99786633 -248.75 168.3125 C-242.99565854 165.18553119 -236.45923793 164.21315288 -230.1015625 162.92578125 C-191.92861537 155.1844499 -155.75109766 131.45221315 -126.75 106.3125 C-125.82489624 105.51658447 -125.82489624 105.51658447 -124.88110352 104.70458984 C-119.84188088 100.34102063 -114.96417128 95.83673479 -110.1875 91.1875 C-109.08438477 90.15302734 -109.08438477 90.15302734 -107.95898438 89.09765625 C-107.26998047 88.42347656 -106.58097656 87.74929688 -105.87109375 87.0546875 C-104.93414673 86.15532471 -104.93414673 86.15532471 -103.97827148 85.23779297 C-102.48778909 83.33582696 -102.48778909 83.33582696 -102.98486328 80.79223633 C-104.37539617 76.28564968 -105.93515894 71.84436032 -107.49609375 67.39453125 C-110.48008205 58.10199626 -111.08878848 49.2319965 -111.0625 39.5 C-111.07861328 38.31857422 -111.09472656 37.13714844 -111.11132812 35.91992188 C-111.11723492 25.1400168 -110.29970928 14.45840462 -103.34765625 5.80078125 C-99.49034106 2.20753653 -95.71155599 1.7580408 -90.6015625 1.87109375 C-80.47243197 3.43902765 -72.74099654 10.32150346 -65.75 17.3125 C-65.3375 16.81621094 -64.925 16.31992187 -64.5 15.80859375 C-54.6931553 4.27241706 -42.69537472 -4.97652627 -27.078125 -6.5859375 C-17.09810216 -7.02130762 -8.53478866 -5.23725668 0 0 Z " fill="#582B6E" transform="translate(1698.75,964.6875)"/>
<path d="M0 0 C8.58 0 17.16 0 26 0 C30.00678969 8.01357938 33.48577565 15.86024284 36.6875 24.1875 C37.07526108 25.19351257 37.07526108 25.19351257 37.47085571 26.21984863 C53.43386333 67.79070244 64.39769651 110.73159369 70.25 154.875 C70.40122314 156.01227539 70.55244629 157.14955078 70.70825195 158.32128906 C71.19087918 162.20955852 71.60870839 166.10174567 72 170 C72.08820007 170.8474176 72.17640015 171.69483521 72.26727295 172.56793213 C74.28304504 192.56325318 74.24408295 212.481264 74.1373291 232.5524292 C74.11647063 236.90472403 74.107652 241.25704407 74.09765625 245.609375 C74.07652616 254.07298315 74.04262354 262.53647285 74 271 C74.8904451 270.72339539 75.7808902 270.44679077 76.69831848 270.1618042 C77.86755356 269.80000061 79.03678864 269.43819702 80.24145508 269.06542969 C81.40002518 268.70632507 82.55859528 268.34722046 83.75227356 267.97723389 C104.94201225 261.60128718 128.74031017 261.3964787 148.59619141 271.88696289 C162.5603454 279.62157802 171.77011206 289.81977525 177.0703125 305.08203125 C179.29272595 312.88050006 179.50783896 319.47648313 176.9375 327.1875 C170.4595851 336.59092486 160.66347897 341.01233762 149.6875 343.25 C121.76126578 347.50313337 93.30192833 343.84456984 65.6875 339.0625 C64.6122406 338.88083282 64.6122406 338.88083282 63.51525879 338.69549561 C43.42843652 335.26517764 43.42843652 335.26517764 37.375 329.5 C33.55169183 319.76794285 36.59775205 307.71158118 37.9375 297.5625 C38.21522739 295.42334078 38.49063852 293.28392929 38.7625885 291.14402771 C39.0102772 289.20033309 39.26453954 287.25747933 39.51928711 285.31469727 C40.70644671 275.26827691 41.16283797 265.24351935 41.203125 255.1328125 C41.21013931 253.94732819 41.21715363 252.76184387 41.22438049 251.54043579 C41.24178609 247.73525141 41.24823294 243.93022273 41.25 240.125 C41.25067474 238.82421509 41.25134949 237.52343018 41.25204468 236.18322754 C41.23616799 216.9311847 40.8102225 198.07387118 38 179 C37.74259033 177.18121338 37.74259033 177.18121338 37.47998047 175.32568359 C34.61485727 155.49001836 31.18177211 134.77948143 24.90869141 115.67675781 C23.83071863 111.31505173 23.80059941 107.44535028 23.91015625 102.98046875 C23.93061188 101.21680002 23.95078459 99.453128 23.97070312 97.68945312 C24.01371594 94.95631673 24.06178167 92.22340675 24.11645508 89.49047852 C24.415851 73.3245734 22.92248867 58.11737953 18.3125 42.5625 C18.05976318 41.69689453 17.80702637 40.83128906 17.54663086 39.93945312 C13.29438801 25.88033941 7.20794914 12.76407661 0 0 Z " fill="#582B6E" transform="translate(1138,1517)"/>
<path d="M0 0 C3.39764865 3.12216362 6.32493654 6.61541605 9.3125 10.125 C9.6425 10.455 9.9725 10.785 10.3125 11.125 C10.993125 10.42375 11.67375 9.7225 12.375 9 C13.35059486 8.03803077 14.33007704 7.07999491 15.3125 6.125 C15.82039063 5.62097656 16.32828125 5.11695313 16.8515625 4.59765625 C22.58490783 -0.74169141 29.20871569 -4.00954736 37.125 -4.3125 C42.17470474 -4.04579024 44.88769673 -2.29980327 48.4375 1.25 C54.56748357 10.64930815 54.58502803 21.52408341 54.625 32.375 C54.62761841 33.04906891 54.63023682 33.72313782 54.63293457 34.41763306 C54.63921073 49.47751163 51.98280851 62.16035723 46.3125 76.125 C55.7926847 87.95724287 55.7926847 87.95724287 67.3125 97.125 C67.3125 97.785 67.3125 98.445 67.3125 99.125 C67.85003906 99.35058594 68.38757813 99.57617188 68.94140625 99.80859375 C72.0628043 101.54156103 74.58657858 103.83956267 77.25 106.1875 C83.6168761 111.66762206 90.25187127 116.56394384 97.3125 121.125 C98.28002197 121.75075928 98.28002197 121.75075928 99.26708984 122.38916016 C115.94759946 133.07529722 133.24998653 142.43091777 151.75 149.5625 C153.39427979 150.20433228 153.39427979 150.20433228 155.07177734 150.85913086 C159.76946064 152.63825498 164.25568488 154.24453564 169.23046875 155.01171875 C173.52777068 155.71412528 176.7029602 156.51088609 180.3125 159.125 C183.98872108 165.50000642 185.499156 172.84595911 187.35888672 179.90283203 C188.87499831 185.02562792 191.04571502 189.79699078 193.3125 194.625 C193.71138428 195.48488525 194.11026855 196.34477051 194.52124023 197.23071289 C195.44125436 199.20036931 196.37516013 201.16352954 197.3125 203.125 C185.15055504 200.64249556 173.4350307 197.50045887 161.6875 193.5 C160.91079956 193.23799805 160.13409912 192.97599609 159.3338623 192.70605469 C109.1021953 175.72864938 52.35254494 147.65674198 16.93994141 106.53100586 C12.96660387 102.04769604 9.79800965 101.14272969 3.9375 100.5625 C-19.29377858 97.41832798 -42.31068699 87.36451756 -57.6875 69.125 C-66.78413449 57.09503048 -70.21836599 46.89226576 -70.125 31.75 C-70.14498047 30.60789062 -70.16496094 29.46578125 -70.18554688 28.2890625 C-70.17825638 15.45779466 -66.74418416 5.38665009 -57.8046875 -3.8125 C-40.64503571 -19.96276051 -17.09326415 -11.92553313 0 0 Z " fill="#582B6E" transform="translate(357.6875,970.875)"/>
<path d="M0 0 C0.33 0 0.66 0 1 0 C1.11214844 1.71316406 1.11214844 1.71316406 1.2265625 3.4609375 C3.51154557 33.27512156 11.853557 64.26679546 29.9453125 88.5703125 C31 91 31 91 30.38671875 93.96875 C18.36237883 120.25294092 -7.30026774 142.98123304 -32 157 C-32.64839844 157.36867188 -33.29679688 157.73734375 -33.96484375 158.1171875 C-46.99835437 165.45931635 -60.13524326 170.8182147 -74.5625 174.75 C-75.28099121 174.94883789 -75.99948242 175.14767578 -76.73974609 175.35253906 C-89.74698532 178.71613209 -102.95278046 179.35382786 -116.31201172 179.63305664 C-118.92059966 179.68846863 -121.52852948 179.75847792 -124.13671875 179.83007812 C-125.79685468 179.87063233 -127.4570106 179.91037784 -129.1171875 179.94921875 C-130.28566727 179.98036018 -130.28566727 179.98036018 -131.47775269 180.01213074 C-133.31816878 180.04737574 -135.15947894 180.02925491 -137 180 C-137.33 179.67 -137.66 179.34 -138 179 C-140.04036169 178.58381744 -142.08225898 178.17414978 -144.13012695 177.79663086 C-175.86239625 171.93277008 -203.48385987 160.2397896 -228 139 C-228.82886719 138.29359375 -229.65773438 137.5871875 -230.51171875 136.859375 C-239.88924149 128.67428451 -248.57982616 119.72737907 -255 109 C-250.33258446 109.61153036 -246.55068495 111.59521739 -242.4375 113.75 C-209.26504786 130.63690544 -167.55562667 137.38488138 -131 128 C-129.49259763 127.65445596 -127.98476097 127.31080257 -126.4765625 126.96875 C-95.34240235 119.6280197 -68.90122227 104.09649411 -46 82 C-45.21238281 81.26394531 -44.42476562 80.52789063 -43.61328125 79.76953125 C-23.41525606 60.41749665 -9.4021608 33.75479807 -2 7 C-1.62492458 5.68194198 -1.24865839 4.36422213 -0.87109375 3.046875 C-0.58363281 2.04140625 -0.29617188 1.0359375 0 0 Z " fill="#743391" transform="translate(978,1353)"/>
<path d="M0 0 C1.40813965 0.00012085 1.40813965 0.00012085 2.84472656 0.00024414 C10.18091518 0.05904754 17.31315473 0.66763392 24.578125 1.65234375 C37.96103672 3.27672971 51.4758911 3.37399937 64.93798828 3.37280273 C67.67105769 3.37498686 70.40372019 3.39322898 73.13671875 3.41210938 C83.22054355 3.44324258 93.13307597 3.02668338 103.15985107 1.91691589 C127.74417228 -0.79516693 127.74417228 -0.79516693 135.4375 4.1875 C137.30078125 6.125 137.30078125 6.125 138.75 8.1875 C139.24113281 8.868125 139.73226563 9.54875 140.23828125 10.25 C144.51343782 17.15709334 143.39577467 28.61680543 141.6015625 36.3046875 C137.94521926 49.54182318 131.70722833 62.98484398 122.4375 73.1875 C121.78394531 73.93257812 121.13039063 74.67765625 120.45703125 75.4453125 C106.30296478 90.65642219 83.91618563 99.30721004 63.40625 100.453125 C41.88584087 101.21427311 22.3537771 92.90019373 6.25 78.8125 C-11.08183295 62.56217343 -22.88321117 42.98431766 -24 18.75 C-23.80706803 13.9106232 -22.51335735 10.04763316 -19.5625 6.1875 C-13.4190187 0.57459209 -8.04795554 -0.00643722 0 0 Z " fill="#45200D" transform="translate(940.5625,993.8125)"/>
<path d="M0 0 C0.98355469 0.31839844 1.96710938 0.63679687 2.98046875 0.96484375 C19.12796111 6.58712421 30.01632332 16.77935134 37.4050293 31.99633789 C39.99024478 37.62136269 41.60536585 42.78451216 42 49 C42.103125 50.28390625 42.20625 51.5678125 42.3125 52.890625 C43.13126679 67.71389344 38.56773209 80.57753025 29 92 C26.5 94.75 26.5 94.75 24 97 C23.54753906 97.45632813 23.09507812 97.91265625 22.62890625 98.3828125 C10.41110373 110.02171664 -4.93503343 112.63836013 -21.10546875 112.3125 C-35.79191794 111.63816524 -48.05720979 103.34451911 -58 93 C-68.98151738 79.79654136 -73.39846197 65.03254968 -72 48 C-70.21953274 37.1143584 -66.26979748 28.88432842 -60 20 C-59.38511719 19.07960938 -59.38511719 19.07960938 -58.7578125 18.140625 C-51.50812447 8.29798285 -37.11679106 0.70839473 -25.2890625 -1.7578125 C-16.83354258 -2.65242382 -8.07252628 -2.90367706 0 0 Z " fill="#44200D" transform="translate(838,886)"/>
<path d="M0 0 C6.84497431 5.76725495 11.94215232 12.03743097 16 20 C16.38929687 20.763125 16.77859375 21.52625 17.1796875 22.3125 C23.37327303 35.33259221 23.65835255 48.92152594 19.25 62.62109375 C12.32783618 81.33256784 0.52300006 91.80069629 -17.296875 100.0546875 C-29.95126442 104.48006646 -46.78775253 103.04799156 -58.93359375 97.7109375 C-61.72369538 96.26364484 -64.3594537 94.70383874 -67 93 C-67.78117187 92.49726562 -68.56234375 91.99453125 -69.3671875 91.4765625 C-79.67611763 84.16399961 -85.89839088 73.76124061 -90 62 C-90.36480469 61.09121094 -90.72960938 60.18242188 -91.10546875 59.24609375 C-94.3160593 47.59543547 -92.60613073 33.96625163 -88 23 C-87.67257812 22.14535156 -87.34515625 21.29070313 -87.0078125 20.41015625 C-81.11508676 6.79666942 -69.22984579 -2.51872656 -55.94140625 -8.33984375 C-36.43842503 -15.77585151 -16.82280079 -12.12751698 0 0 Z " fill="#44200D" transform="translate(1213,896)"/>
<path d="M0 0 C6.20569957 3.89234819 11.65651281 8.11772606 16.9375 13.1875 C17.63061279 13.8482251 18.32372559 14.5089502 19.0378418 15.18969727 C42.13074036 37.38374627 58.54506366 64.87070527 66.875 95.875 C67.06618408 96.58648193 67.25736816 97.29796387 67.4543457 98.03100586 C70.6287045 110.71259086 71.34873296 123.20767487 71.31567383 136.2121582 C71.31251676 138.79877056 71.33605955 141.38423122 71.36132812 143.97070312 C71.41578608 158.43062496 69.75935711 172.26199758 65 186 C64.36578125 185.9278125 63.7315625 185.855625 63.078125 185.78125 C39.89652011 183.47589703 16.49042299 184.91652493 -6 191 C-7.33258344 191.33631868 -8.66547979 191.67145061 -10 192 C-9.41605469 191.12214844 -9.41605469 191.12214844 -8.8203125 190.2265625 C0.96693378 175.20742419 8.85661206 159.85097392 15 143 C15.40992188 141.90816406 15.81984375 140.81632813 16.2421875 139.69140625 C25.55473754 112.51175437 25.30566304 81.95523845 20 54 C19.85546387 53.23413574 19.71092773 52.46827148 19.56201172 51.67919922 C16.48861931 36.0263402 10.90350478 22.08611698 3.25146484 8.11767578 C2.83074707 7.3492334 2.4100293 6.58079102 1.9765625 5.7890625 C1.59580566 5.10537598 1.21504883 4.42168945 0.82275391 3.71728516 C0 2 0 2 0 0 Z " fill="#743391" transform="translate(1107,490)"/>
<path d="M0 0 C6.60924479 5.31409985 11.25189638 12.95531036 12.75 21.3125 C14.30735172 38.44336895 8.5883449 52.20507387 -1.9375 65.5 C-12.04788817 77.20197851 -26.75815005 86.18616765 -42.25 88.3125 C-54.20131063 89.04883667 -63.83742965 88.22380045 -73.2109375 80.32421875 C-81.1570252 72.48468778 -84.31196262 63.44922498 -84.6875 52.4375 C-84.52878406 45.48423026 -82.9405343 39.68971798 -80.25 33.3125 C-79.94964844 32.58417969 -79.64929688 31.85585938 -79.33984375 31.10546875 C-76.81148674 25.55621766 -73.11079797 20.99276712 -69.25 16.3125 C-68.75371094 15.68085937 -68.25742187 15.04921875 -67.74609375 14.3984375 C-52.08464043 -4.97567642 -21.57368191 -14.55818009 0 0 Z " fill="#AF79BC" transform="translate(980.25,514.6875)"/>
<path d="M0 0 C7.45751538 6.84808401 11.40862283 13.80622848 12.01953125 24.0859375 C12.1150435 31.76671391 11.81789027 38.49648402 8.81640625 45.66796875 C8.24792969 47.06402344 8.24792969 47.06402344 7.66796875 48.48828125 C-0.06602513 65.61036018 -13.94283827 77.52695906 -31.18359375 84.66796875 C-42.27344327 88.58116465 -54.5265784 89.71993893 -65.578125 85.1328125 C-74.07805401 80.35399184 -80.72495031 73.25866156 -83.93359375 64.04296875 C-87.72924876 50.11166356 -84.11868037 37.00482175 -77.125 24.76953125 C-67.64907931 9.63093763 -53.06881592 -2.11553924 -35.62109375 -6.83203125 C-22.96526511 -8.84435649 -10.18347284 -8.33193232 0 0 Z " fill="#AF79BC" transform="translate(1273.18359375,488.33203125)"/>
<path d="M0 0 C9.14789548 5.94613206 15.5483827 13.56122086 18.03125 24.3203125 C19.43646381 42.22310139 14.39587582 55.59248178 3.03125 69.3203125 C2.28875 70.3309375 1.54625 71.3415625 0.78125 72.3828125 C-8.65640477 83.52233944 -25.20132528 91.2658313 -39.55859375 92.671875 C-50.82871295 92.94108523 -59.53614703 90.98797092 -67.96875 83.3203125 C-68.51402344 82.82917969 -69.05929687 82.33804688 -69.62109375 81.83203125 C-75.72931878 75.56838065 -79.18921334 66.51136131 -79.46875 57.8203125 C-78.47016384 40.15301898 -70.37051928 25.58283088 -57.96875 13.3203125 C-43.20140269 0.43321399 -19.1305115 -9.63261671 0 0 Z " fill="#AF79BC" transform="translate(820.96875,725.6796875)"/>
<path d="M0 0 C1.07121094 0.63615234 1.07121094 0.63615234 2.1640625 1.28515625 C9.74290424 6.38029517 14.86800234 14.22681191 16.625 23.1875 C18.11857263 38.37215506 14.52151067 52.44291735 4.96484375 64.5859375 C2.72511348 67.15352952 0.40712394 69.58897473 -2 72 C-2.78503906 72.79664063 -3.57007813 73.59328125 -4.37890625 74.4140625 C-15.23685306 84.83629716 -29.53827567 91.04143695 -44.625 91.5 C-55.52954098 91.15222143 -64.19195873 87.69784714 -72 80 C-78.84914118 71.76390773 -80.60159626 62.00212512 -80.3515625 51.5234375 C-79.79629956 45.95846896 -78.17749001 41.12602565 -76 36 C-75.63777344 35.13632812 -75.27554688 34.27265625 -74.90234375 33.3828125 C-67.56752073 17.4202485 -53.88906295 5.63583865 -37.98046875 -1.3203125 C-26.16408411 -5.5712383 -11.11336929 -6.6308393 0 0 Z " fill="#AF79BC" transform="translate(684,485)"/>
<path d="M0 0 C7.52703434 4.87182853 12.4023053 11.17684951 15.48046875 19.60546875 C18.92532052 35.79846624 15.08363949 48.88252032 6.48046875 62.60546875 C-5.03583112 78.75183126 -20.16529476 87.85167523 -39.51953125 91.60546875 C-48.99191128 92.62157626 -57.87874251 91.44477744 -65.76953125 85.85546875 C-67.04424635 84.80132809 -68.2957016 83.71828145 -69.51953125 82.60546875 C-70.06480469 82.11433594 -70.61007812 81.62320313 -71.171875 81.1171875 C-77.48429599 74.64414511 -80.76120017 65.49061811 -81.01953125 56.54296875 C-80.13096317 39.18171549 -71.68289799 24.63226145 -59.51953125 12.60546875 C-43.76977164 -1.13895666 -19.99889577 -10.06996585 0 0 Z " fill="#AF79BC" transform="translate(1114.51953125,726.39453125)"/>
<path d="M0 0 C0.87221191 0.00427002 1.74442383 0.00854004 2.64306641 0.01293945 C9.94791535 0.20453095 15.86734647 1.70790788 22.1875 5.5 C22.7959375 5.8609375 23.404375 6.221875 24.03125 6.59375 C30.68428439 11.34591742 34.40893336 19.79015836 36.1875 27.5 C37.61329833 44.39405228 33.46180809 57.98676148 22.86328125 71.453125 C11.90015524 84.0512541 -4.04480077 94.37204392 -21.0546875 95.765625 C-31.76383218 96.09369508 -40.62340632 94.05252927 -49.03125 87.1953125 C-55.41792408 81.11676743 -59.68133541 73.96908884 -60.28125 65.0546875 C-60.31547688 63.49513242 -60.3251572 61.93487926 -60.3125 60.375 C-60.30677979 59.54677734 -60.30105957 58.71855469 -60.29516602 57.86523438 C-59.94186612 45.54137253 -55.03951651 35.37219902 -47.8125 25.5 C-47.06419922 24.45779297 -47.06419922 24.45779297 -46.30078125 23.39453125 C-35.56543093 9.84689772 -17.29821808 -0.12914124 0 0 Z " fill="#AF79BC" transform="translate(1386.8125,722.5)"/>
<path d="M0 0 C6.96876632 5.68763958 12.29978475 12.16115097 13.75 21.25 C15.17599265 39.10198394 11.23079527 52.33315363 -0.25 66.25 C-1.013125 67.301875 -1.77625 68.35375 -2.5625 69.4375 C-12.78368044 80.13408418 -27.86810914 88.59237964 -42.765625 89.453125 C-55.84807829 89.61733989 -64.36191713 87.69985604 -73.9375 78.65625 C-81.29032757 70.86225278 -82.84965898 62.3864293 -82.72045898 52.00024414 C-82.04954523 34.82306285 -72.43749188 20.84404575 -60.23828125 9.35546875 C-55.62341452 5.46140025 -50.54251918 2.66533059 -45.1875 -0.0625 C-44.5267749 -0.40039551 -43.8660498 -0.73829102 -43.18530273 -1.08642578 C-29.80588015 -7.63440239 -12.60839939 -8.88049223 0 0 Z " fill="#AF79BC" transform="translate(830.25,1248.75)"/>
<path d="M0 0 C7.02024218 5.03833708 13.38658203 11.60313861 15.5546875 20.19921875 C17.95501842 35.29603693 15.1546066 48.73132741 6.625 61.4375 C5.44068437 62.97711032 4.23259484 64.4987627 3 66 C2.41734375 66.75539063 1.8346875 67.51078125 1.234375 68.2890625 C-7.28535056 78.70603787 -18.29354364 84.95162435 -31 89 C-31.70511719 89.24492188 -32.41023438 89.48984375 -33.13671875 89.7421875 C-43.28587486 92.8486378 -53.55335908 91.49691337 -63 87 C-70.12273353 83.16468195 -76.29431626 76.49927004 -79.34375 68.94140625 C-82.48978398 54.84043251 -80.05533262 40.20484351 -72.83984375 27.8203125 C-58.39172271 5.67266199 -26.5055614 -15.4165 0 0 Z " fill="#AF79BC" transform="translate(528,727)"/>
<path d="M0 0 C6.9156541 2.22723366 10.6116453 8.61051303 13.94140625 14.71875 C18.21922603 24.72389874 17.14854278 38.35787542 13.38671875 48.3671875 C10.58952947 55.32178462 6.654421 61.15035095 1.88671875 66.9296875 C1.12359375 67.9815625 0.36046875 69.0334375 -0.42578125 70.1171875 C-10.67785628 80.84610323 -25.65993173 89.13756242 -40.55859375 90.16796875 C-51.57250328 90.39011767 -61.62554326 88.96644634 -70.36328125 81.7578125 C-78.62169102 73.13072373 -80.42904092 63.43819737 -80.42504883 51.94628906 C-80.28119993 45.46471655 -79.0085707 39.7202664 -76.11328125 33.9296875 C-73.80688477 33.09521484 -73.80688477 33.09521484 -70.7421875 32.265625 C-69.61917236 31.95246338 -68.49615723 31.63930176 -67.33911133 31.31665039 C-66.1302124 30.98270264 -64.92131348 30.64875488 -63.67578125 30.3046875 C-42.71206683 24.28894122 -22.5089439 15.73631159 -5.76171875 1.484375 C-3.11328125 -0.0703125 -3.11328125 -0.0703125 0 0 Z " fill="#AF79BC" transform="translate(669.11328125,975.0703125)"/>
<path d="M0 0 C1.60294922 0.49886719 1.60294922 0.49886719 3.23828125 1.0078125 C13.85005916 4.86418922 23.58244558 9.96948987 29.03125 20.296875 C31.49123152 27.16101697 30.93973417 33.70060642 28 40.3125 C21.62069186 51.38768774 10.39364272 56.30080287 -1.51953125 59.6484375 C-8.50864988 61.32434978 -15.27887472 61.44285427 -22.4375 61.375 C-24.26764648 61.39240234 -24.26764648 61.39240234 -26.13476562 61.41015625 C-41.4027213 61.36145464 -54.06641117 57.74030198 -66.4375 48.6875 C-71.56356496 43.31138309 -75.34031384 37.99281128 -75.5625 30.375 C-75.00796733 21.9862185 -72.62444756 16.68982542 -66.41015625 10.94921875 C-48.8052772 -3.28876285 -21.49588714 -6.71598674 0 0 Z " fill="#EC8981" transform="translate(789,1023)"/>
<path d="M0 0 C6.38426649 5.26071959 11.6186245 10.55223873 12.6171875 19.0078125 C13.03047047 26.04577837 10.9891534 31.42989462 6.8203125 37.0546875 C-2.1489382 47.04404611 -16.12964477 52.17958558 -29.28369141 53.2565918 C-33.21464333 53.39389251 -37.12933122 53.41566699 -41.0625 53.39453125 C-43.03573242 53.42450195 -43.03573242 53.42450195 -45.04882812 53.45507812 C-59.98913654 53.44768559 -74.96068633 49.04022858 -86.12109375 38.6328125 C-91.61157151 32.51485157 -93.36567626 26.95778515 -92.98046875 18.75390625 C-92.1767155 12.42986971 -89.38034198 7.26416859 -84.625 2.95703125 C-61.4417842 -14.19630128 -24.16777232 -16.9100724 0 0 Z " fill="#EC8981" transform="translate(1274.625,1031.04296875)"/>
<path d="M0 0 C3.00752989 2.85814927 5.5002914 5.34385005 7.25 9.125 C7.56453125 9.78757812 7.8790625 10.45015625 8.203125 11.1328125 C12.15629929 20.39564244 11.35473804 33.77433497 7.9375 43.0625 C-1.08560442 62.82739539 -15.45031646 76.2831427 -35.71484375 84.0390625 C-46.90386909 87.55514388 -58.48379261 87.39931659 -69 82 C-77.46219001 76.79140075 -83.35802391 69.66874445 -86 60 C-86.27780273 56.99471165 -86.27986338 54.01620159 -86.25 51 C-86.25773438 50.21882813 -86.26546875 49.43765625 -86.2734375 48.6328125 C-86.24269255 39.50156243 -86.24269255 39.50156243 -84 36 C-80.51881532 34.64813169 -76.92943683 34.18170638 -73.25 33.625 C-45.87954547 28.66493708 -22.12610196 16.61632559 0 0 Z " fill="#AF79BC" transform="translate(967,1495)"/>
<path d="M0 0 C3.77902103 1.45037054 4.95601661 3.14501881 6.6875 6.75 C7.10386719 7.59046875 7.52023437 8.4309375 7.94921875 9.296875 C12.47747222 20.94576497 10.47984516 33.73536774 5.78125 44.89453125 C-2.16881433 62.09758713 -15.66937837 73.80652488 -33 81 C-44.24834773 85.02647861 -56.36044033 85.94360221 -67.53125 81.26171875 C-76.5021575 76.67690368 -81.88364608 70.50822219 -85.51953125 61.1875 C-86.19506465 58.11190076 -86.07162804 55.13655426 -86 52 C-84.76507812 51.6596875 -83.53015625 51.319375 -82.2578125 50.96875 C-49.28244028 41.64049296 -23.62132851 24.6178533 0 0 Z " fill="#AF79BC" transform="translate(1121,1239)"/>
<path d="M0 0 C0.20753906 1.1859375 0.41507813 2.371875 0.62890625 3.59375 C5.24601669 28.46565346 16.63655025 49.34197832 37.6875 64.1875 C39.11716548 65.13690461 40.55159826 66.0794323 42 67 C38.50979742 74.79365624 31.32897183 78.61154732 24 82.3125 C23.33597168 82.64991211 22.67194336 82.98732422 21.98779297 83.33496094 C14.62497325 86.91237617 7.73236528 88.37570979 -0.4375 88.3125 C-1.18104736 88.30831055 -1.92459473 88.30412109 -2.69067383 88.29980469 C-12.40614722 88.09994595 -19.20752824 85.20802399 -26.5625 78.75 C-34.58767703 69.69595413 -36.75797722 60.73656878 -36.43359375 48.80859375 C-35.4862577 34.07323893 -26.62123287 19.57340963 -16.03125 9.6328125 C-4.04784689 0 -4.04784689 0 0 0 Z " fill="#AF79BC" transform="translate(917,1014)"/>
<path d="M0 0 C-10.03060319 13.01267441 -26.08689593 21.78588263 -42.2578125 24.55859375 C-65.11052415 27.25416412 -84.4784203 21.6031748 -102.765625 7.859375 C-105.0026217 5.99781831 -107.08581281 4.1951688 -109 2 C-109 1.01 -109 0.02 -109 -1 C-76.62639881 -25.60187817 -32.1189888 -23.71863788 0 0 Z " fill="#EB8980" transform="translate(1055,1054)"/>
<path d="M0 0 C7.97910969 3.86865924 12.34906649 10.70154501 15.2734375 18.80078125 C15.51320313 19.52652344 15.75296875 20.25226562 16 21 C16.495 22.485 16.495 22.485 17 24 C17.8029952 33.03040504 16.89239745 41.72051914 13 50 C9.20830458 51.26389847 8.25292614 50.4587504 4.5625 49.0625 C-13.91150306 43.54528993 -36.94762518 45.08577689 -54.125 53.9375 C-60.29668618 57.62940822 -65.75197044 61.38793982 -69 68 C-69.9131989 72.64382397 -70.51008183 77.29420707 -71 82 C-71.43505859 81.09314453 -71.43505859 81.09314453 -71.87890625 80.16796875 C-73.01575079 77.8394886 -73.01575079 77.8394886 -74.9375 75.3125 C-81.16588485 65.30933645 -81.35586001 53.95437872 -79.4140625 42.5625 C-78.33927283 38.85496865 -77.45499934 35.96589809 -74.15234375 33.7734375 C-71.77477438 32.91906593 -69.48788639 32.43771836 -67 32 C-42.88678258 26.50540619 -19.39482673 15.43669883 0 0 Z " fill="#B079BC" transform="translate(1253,975)"/>
<path d="M0 0 C4.64901102 2.65791943 7.40697168 6.05785351 10 10.75 C11.66238701 17.09729586 11.09912627 21.8864618 7.9609375 27.55078125 C5.12798359 31.60903117 1.25721815 34.48895269 -3.3125 36.375 C-9.46056878 37.0901077 -15.15746336 37.09142176 -20.3125 33.375 C-25.2705718 28.53639981 -28.27593421 24.15089812 -28.75 17.125 C-28.58636086 11.67036192 -26.78038796 7.5640142 -23.3125 3.375 C-16.45013138 -2.42018925 -8.22427673 -3.66382253 0 0 Z " fill="#FCFBFB" transform="translate(1167.3125,906.625)"/>
<path d="M0 0 C5.18616758 2.89935353 7.86973945 6.42560617 9.6875 12.0625 C10.69661435 17.97868024 9.73583896 22.85082372 6.6875 28.0625 C2.87685389 32.05723529 -1.25053557 35.65923975 -6.86328125 36.3984375 C-13.32264061 36.48980043 -17.12585375 36.00435115 -22.3125 32.0625 C-26.86319021 27.63316153 -29.06665699 23.56190396 -29.6875 17.25 C-29.50931615 11.68437504 -27.42411022 7.27489162 -23.59375 3.26171875 C-16.54129669 -2.99882773 -8.69439122 -3.78752672 0 0 Z " fill="#FCFBFB" transform="translate(852.3125,906.9375)"/>
</svg>
